<?xml version="1.0" encoding="UTF-8" standalone="no"?>
<!-- Generator: Adobe Illustrator 17.1.0, SVG Export Plug-In . SVG Version: 6.00 Build 0)  -->

<svg
   xmlns:dc="http://purl.org/dc/elements/1.1/"
   xmlns:cc="http://creativecommons.org/ns#"
   xmlns:rdf="http://www.w3.org/1999/02/22-rdf-syntax-ns#"
   xmlns:svg="http://www.w3.org/2000/svg"
   xmlns="http://www.w3.org/2000/svg"
   xmlns:sodipodi="http://sodipodi.sourceforge.net/DTD/sodipodi-0.dtd"
   xmlns:inkscape="http://www.inkscape.org/namespaces/inkscape"
   version="1.1"
   id="Layer_1"
   x="0px"
   y="0px"
   viewBox="0 0 50 50"
   enable-background="new 0 0 20 20"
   xml:space="preserve"
   sodipodi:docname="settings.svg"
   width="50"
   height="50"
   inkscape:version="0.92.5 (2060ec1f9f, 2020-04-08)"><metadata
   id="metadata12"><rdf:RDF><cc:Work
       rdf:about=""><dc:format>image/svg+xml</dc:format><dc:type
         rdf:resource="http://purl.org/dc/dcmitype/StillImage" /><dc:title></dc:title></cc:Work></rdf:RDF></metadata><defs
   id="defs10" /><sodipodi:namedview
   pagecolor="#ffffff"
   bordercolor="#666666"
   borderopacity="1"
   objecttolerance="10"
   gridtolerance="10"
   guidetolerance="10"
   inkscape:pageopacity="0"
   inkscape:pageshadow="2"
   inkscape:window-width="1480"
   inkscape:window-height="1046"
   id="namedview8"
   showgrid="false"
   inkscape:pagecheckerboard="true"
   inkscape:zoom="11.8"
   inkscape:cx="24.88532"
   inkscape:cy="16.779661"
   inkscape:window-x="0"
   inkscape:window-y="27"
   inkscape:window-maximized="0"
   inkscape:current-layer="Layer_1" />
<g
   id="cog_2_"
   transform="matrix(2.25,0,0,2.25,2.5,2.5)"
   style="fill:#ffffff;fill-opacity:1">
	<g
   id="g4"
   style="fill:#ffffff;fill-opacity:1">
		<path
   d="M 19,8 H 16.69 C 16.55,7.54 16.36,7.11 16.13,6.7 L 17.83,5 c 0.39,-0.39 0.39,-1.02 0,-1.41 L 16.42,2.18 c -0.39,-0.39 -1.02,-0.39 -1.41,0 l -1.7,1.7 C 12.9,3.66 12.47,3.47 12.01,3.33 V 1 c 0,-0.55 -0.45,-1 -1,-1 H 9 C 8.45,0 8,0.45 8,1 V 3.33 C 7.52,3.47 7.06,3.67 6.63,3.91 L 5,2.28 C 4.63,1.91 4.02,1.91 3.64,2.28 L 2.28,3.64 C 1.91,4.02 1.91,4.63 2.28,5 L 3.9,6.62 C 3.66,7.06 3.46,7.51 3.31,8 H 1 C 0.45,8 0,8.45 0,9 v 2 c 0,0.55 0.45,1 1,1 h 2.31 c 0.14,0.46 0.33,0.89 0.56,1.3 L 2.17,15 c -0.39,0.39 -0.39,1.02 0,1.41 l 1.41,1.41 c 0.39,0.39 1.02,0.39 1.41,0 l 1.7,-1.7 c 0.41,0.22 0.84,0.41 1.3,0.55 V 19 c 0,0.55 0.45,1 1,1 h 2 c 0.55,0 1,-0.45 1,-1 v -2.33 c 0.48,-0.14 0.94,-0.35 1.37,-0.59 L 15,17.72 c 0.37,0.37 0.98,0.37 1.36,0 l 1.36,-1.36 c 0.37,-0.37 0.37,-0.98 0,-1.36 L 16.1,13.38 C 16.34,12.95 16.55,12.49 16.7,12 H 19 c 0.55,0 1,-0.45 1,-1 V 9 C 20,8.45 19.55,8 19,8 Z m -9,6 C 7.79,14 6,12.21 6,10 6,7.79 7.79,6 10,6 c 2.21,0 4,1.79 4,4 0,2.21 -1.79,4 -4,4 z"
   id="path2"
   inkscape:connector-curvature="0"
   style="clip-rule:evenodd;fill-rule:evenodd;fill:#ffffff;fill-opacity:1" />
	</g>
</g>
</svg>