<?xml version="1.0" encoding="UTF-8" standalone="no"?>
<!-- Generator: Adobe Illustrator 19.0.0, SVG Export Plug-In . SVG Version: 6.00 Build 0)  -->

<svg
   xmlns:dc="http://purl.org/dc/elements/1.1/"
   xmlns:cc="http://creativecommons.org/ns#"
   xmlns:rdf="http://www.w3.org/1999/02/22-rdf-syntax-ns#"
   xmlns:svg="http://www.w3.org/2000/svg"
   xmlns="http://www.w3.org/2000/svg"
   xmlns:sodipodi="http://sodipodi.sourceforge.net/DTD/sodipodi-0.dtd"
   xmlns:inkscape="http://www.inkscape.org/namespaces/inkscape"
   version="1.1"
   id="Capa_1"
   x="0px"
   y="0px"
   viewBox="0 0 50 50"
   xml:space="preserve"
   sodipodi:docname="settings.svg"
   width="50"
   height="50"
   inkscape:version="0.92.5 (2060ec1f9f, 2020-04-08)"><metadata
   id="metadata41"><rdf:RDF><cc:Work
       rdf:about=""><dc:format>image/svg+xml</dc:format><dc:type
         rdf:resource="http://purl.org/dc/dcmitype/StillImage" /><dc:title></dc:title></cc:Work></rdf:RDF></metadata><defs
   id="defs39" /><sodipodi:namedview
   pagecolor="#ffffff"
   bordercolor="#666666"
   borderopacity="1"
   objecttolerance="10"
   gridtolerance="10"
   guidetolerance="10"
   inkscape:pageopacity="0"
   inkscape:pageshadow="2"
   inkscape:window-width="2089"
   inkscape:window-height="1160"
   id="namedview37"
   showgrid="false"
   inkscape:pagecheckerboard="true"
   inkscape:zoom="15.418475"
   inkscape:cx="21.7408"
   inkscape:cy="28.83975"
   inkscape:window-x="0"
   inkscape:window-y="27"
   inkscape:window-maximized="0"
   inkscape:current-layer="Capa_1" />
<g
   id="g4"
   transform="matrix(0.08166572,0,0,0.08166572,4.9999835,4.9999835)"
   style="fill:#ffffff;fill-opacity:0.90707964">
	<path
   d="m 20.701,281.901 32.1,0.2 c 4.8,24.7 14.3,48.7 28.7,70.5 l -22.8,22.6 c -8.2,8.1 -8.2,21.2 -0.2,29.4 l 24.6,24.9 c 8.1,8.2 21.2,8.2 29.4,0.2 l 22.8,-22.6 c 21.6,14.6 45.5,24.5 70.2,29.5 l -0.2,32.1 c -0.1,11.5 9.2,20.8 20.7,20.9 l 35,0.2 c 11.5,0.1 20.8,-9.2 20.9,-20.7 l 0.2,-32.1 c 24.7,-4.8 48.7,-14.3 70.5,-28.7 l 22.6,22.8 c 8.1,8.2 21.2,8.2 29.4,0.2 l 24.9,-24.6 c 8.2,-8.1 8.2,-21.2 0.2,-29.4 l -22.6,-22.8 c 14.6,-21.6 24.5,-45.5 29.5,-70.2 l 32.1,0.2 c 11.5,0.1 20.8,-9.2 20.9,-20.7 l 0.2,-35 c 0.1,-11.5 -9.2,-20.8 -20.7,-20.9 l -32.1,-0.2 c -4.8,-24.7 -14.3,-48.7 -28.7,-70.5 l 22.8,-22.6 c 8.2,-8.1 8.2,-21.2 0.2,-29.4 l -24.6,-24.9 c -8.1,-8.2 -21.2,-8.2 -29.4,-0.2 l -22.8,22.6 c -21.6,-14.6 -45.5,-24.5 -70.2,-29.5 l 0.2,-32.1 c 0.1,-11.5 -9.2,-20.8 -20.7,-20.9 l -35,-0.2 c -11.5,-0.1 -20.8,9.2 -20.9,20.7 l -0.3,32.1 c -24.8,4.8 -48.8,14.3 -70.5,28.7 l -22.6,-22.8 c -8.1,-8.2 -21.2,-8.2 -29.4,-0.2 l -24.8,24.6 c -8.2,8.1 -8.2,21.2 -0.2,29.4 l 22.6,22.8 c -14.6,21.6 -24.5,45.5 -29.5,70.2 l -32.1,-0.2 c -11.5,-0.1 -20.8,9.2 -20.9,20.7 l -0.2,35 c -0.1,11.4 9.2,20.8 20.7,20.9 z m 158.6,-103.3 c 36.6,-36.2 95.5,-35.9 131.7,0.7 36.2,36.6 35.9,95.5 -0.7,131.7 -36.6,36.2 -95.5,35.9 -131.7,-0.7 -36.2,-36.6 -35.9,-95.5 0.7,-131.7 z"
   id="path2"
   inkscape:connector-curvature="0"
   style="fill:#ffffff;fill-opacity:0.90707964" />
</g>
<g
   id="g6"
   transform="matrix(0.08166572,0,0,0.08166572,224.90098,-214.90102)"
   style="fill:#ffffff;fill-opacity:0.90707964">
</g>
<g
   id="g8"
   transform="matrix(0.08166572,0,0,0.08166572,224.90098,-214.90102)"
   style="fill:#ffffff;fill-opacity:0.90707964">
</g>
<g
   id="g10"
   transform="matrix(0.08166572,0,0,0.08166572,224.90098,-214.90102)"
   style="fill:#ffffff;fill-opacity:0.90707964">
</g>
<g
   id="g12"
   transform="matrix(0.08166572,0,0,0.08166572,224.90098,-214.90102)"
   style="fill:#ffffff;fill-opacity:0.90707964">
</g>
<g
   id="g14"
   transform="matrix(0.08166572,0,0,0.08166572,224.90098,-214.90102)"
   style="fill:#ffffff;fill-opacity:0.90707964">
</g>
<g
   id="g16"
   transform="matrix(0.08166572,0,0,0.08166572,224.90098,-214.90102)"
   style="fill:#ffffff;fill-opacity:0.90707964">
</g>
<g
   id="g18"
   transform="matrix(0.08166572,0,0,0.08166572,224.90098,-214.90102)"
   style="fill:#ffffff;fill-opacity:0.90707964">
</g>
<g
   id="g20"
   transform="matrix(0.08166572,0,0,0.08166572,224.90098,-214.90102)"
   style="fill:#ffffff;fill-opacity:0.90707964">
</g>
<g
   id="g22"
   transform="matrix(0.08166572,0,0,0.08166572,224.90098,-214.90102)"
   style="fill:#ffffff;fill-opacity:0.90707964">
</g>
<g
   id="g24"
   transform="matrix(0.08166572,0,0,0.08166572,224.90098,-214.90102)"
   style="fill:#ffffff;fill-opacity:0.90707964">
</g>
<g
   id="g26"
   transform="matrix(0.08166572,0,0,0.08166572,224.90098,-214.90102)"
   style="fill:#ffffff;fill-opacity:0.90707964">
</g>
<g
   id="g28"
   transform="matrix(0.08166572,0,0,0.08166572,224.90098,-214.90102)"
   style="fill:#ffffff;fill-opacity:0.90707964">
</g>
<g
   id="g30"
   transform="matrix(0.08166572,0,0,0.08166572,224.90098,-214.90102)"
   style="fill:#ffffff;fill-opacity:0.90707964">
</g>
<g
   id="g32"
   transform="matrix(0.08166572,0,0,0.08166572,224.90098,-214.90102)"
   style="fill:#ffffff;fill-opacity:0.90707964">
</g>
<g
   id="g34"
   transform="matrix(0.08166572,0,0,0.08166572,224.90098,-214.90102)"
   style="fill:#ffffff;fill-opacity:0.90707964">
</g>
</svg>