<?xml version="1.0" encoding="UTF-8"?>
<svg version="1.1" viewBox="0 0 631 250" xmlns="http://www.w3.org/2000/svg">
<g transform="translate(-37.84 -39.965)">
<g transform="matrix(1.0007 0 0 .9992 38.34 40.464)">
<path d="m0 4c0-0.53043 0.10149-1.0407 0.30448-1.5307 0.20299-0.49006 0.49202-0.92262 0.86709-1.2977 0.37507-0.37507 0.80764-0.6641 1.2977-0.86709 0.49006-0.20299 1.0003-0.30448 1.5307-0.30448h119.9c0.53042 0 1.0407 0.10149 1.5307 0.30448 0.49006 0.20299 0.92263 0.49202 1.2977 0.86709 0.37507 0.37507 0.6641 0.80764 0.86709 1.2977 0.203 0.49006 0.30449 1.0003 0.3045 1.5307v4-2 34c-1e-5 0.53043-0.1015 1.0407-0.30449 1.5307-0.203 0.49006-0.49203 0.92262-0.8671 1.2977-0.37507 0.37507-0.80764 0.6641-1.2977 0.86709-0.49005 0.20299-1.0003 0.30448-1.5307 0.30448h-84.898c-1.6667 0-2.5 0.75-3.3333 1.5l-3.3333 3c-0.83333 0.75-1.6667 1.5-3.3333 1.5h-10c-1.6667 0-2.5-0.75-3.3333-1.5l-3.3333-3c-0.83333-0.75-1.6667-1.5-3.3333-1.5h-5c-0.53043-4e-6 -1.0407-0.1015-1.5307-0.30448-0.49006-0.20299-0.92262-0.49202-1.2977-0.86709-0.37507-0.37507-0.6641-0.80764-0.86709-1.2977-0.20299-0.49006-0.30448-1.0003-0.30448-1.5307z" fill="#ffbf00"/>
<path d="m0 4c0-0.53043 0.10149-1.0407 0.30448-1.5307 0.20299-0.49006 0.49202-0.92262 0.86709-1.2977 0.37507-0.37507 0.80764-0.6641 1.2977-0.86709 0.49006-0.20299 1.0003-0.30448 1.5307-0.30448h119.9c0.53042 0 1.0407 0.10149 1.5307 0.30448 0.49006 0.20299 0.92263 0.49202 1.2977 0.86709 0.37507 0.37507 0.6641 0.80764 0.86709 1.2977 0.203 0.49006 0.30449 1.0003 0.3045 1.5307v4-2 34c-1e-5 0.53043-0.1015 1.0407-0.30449 1.5307-0.203 0.49006-0.49203 0.92262-0.8671 1.2977-0.37507 0.37507-0.80764 0.6641-1.2977 0.86709-0.49005 0.20299-1.0003 0.30448-1.5307 0.30448h-84.898c-1.6667 0-2.5 0.75-3.3333 1.5l-3.3333 3c-0.83333 0.75-1.6667 1.5-3.3333 1.5h-10c-1.6667 0-2.5-0.75-3.3333-1.5l-3.3333-3c-0.83333-0.75-1.6667-1.5-3.3333-1.5h-5c-0.53043-4e-6 -1.0407-0.1015-1.5307-0.30448-0.49006-0.20299-0.92262-0.49202-1.2977-0.86709-0.37507-0.37507-0.6641-0.80764-0.86709-1.2977-0.20299-0.49006-0.30448-1.0003-0.30448-1.5307z" fill="none" stroke="#bf8f00" stroke-miterlimit="10"/>
</g>
<g transform="matrix(1.0007 0 0 .9992 38.34 84.429)">
<path d="m0 4c0-0.53043 0.10149-1.0407 0.30448-1.5307 0.20299-0.49006 0.49202-0.92262 0.86709-1.2977 0.37507-0.37507 0.80764-0.6641 1.2977-0.86709 0.49006-0.20299 1.0003-0.30448 1.5307-0.30448h5c1.6667 0 2.5 0.75 3.3333 1.5l3.3333 3c0.83333 0.75 1.6667 1.5 3.3333 1.5h10c1.6667 0 2.5-0.75 3.3333-1.5l3.3333-3c0.83333-0.75 1.6667-1.5 3.3333-1.5h120.62c0.53042 0 1.0407 0.10149 1.5307 0.30448 0.49005 0.20299 0.92263 0.49202 1.2977 0.86709 0.37506 0.37507 0.66409 0.80764 0.86708 1.2977 0.20299 0.49006 0.30449 1.0003 0.30451 1.5307v36c-2e-5 0.53043-0.10152 1.0407-0.30451 1.5307s-0.49202 0.92262-0.86708 1.2977c-0.37507 0.37507-0.80765 0.6641-1.2977 0.86709-0.49005 0.20299-1.0003 0.30448-1.5307 0.30448h-98.617c-1.6667 0-2.5 0.75-3.3333 1.5l-3.3333 3c-0.83333 0.75-1.6667 1.5-3.3333 1.5h-10c-1.6667 0-2.5-0.75-3.3333-1.5l-3.3333-3c-0.83333-0.75-1.6667-1.5-3.3333-1.5h-5c-0.53043 0-1.0407 0.10149-1.5307 0.30448-0.49006 0.20299-0.92262 0.49202-1.2977 0.86709-0.37507 0.37507-0.6641 0.80764-0.86709 1.2977-0.20299 0.49006-0.30448 1.0003-0.30448 1.5307v117.2c-2e-6 0.53042 0.10149 1.0407 0.30448 1.5307 0.20299 0.49005 0.49202 0.92263 0.86709 1.2977 0.37507 0.37506 0.80764 0.66409 1.2977 0.8671 0.49006 0.20299 1.0003 0.30447 1.5307 0.30449h5c1.6667 0 2.5 0.75 3.3333 1.5l3.3333 3c0.83333 0.75 1.6667 1.5 3.3333 1.5h10c1.6667 0 2.5-0.75 3.3333-1.5l3.3333-3c0.83333-0.75 1.6667-1.5 3.3333-1.5h98.617c0.53042 0 1.0407 0.10148 1.5307 0.30447s0.92263 0.49202 1.2977 0.8671c0.37506 0.37506 0.66409 0.80761 0.86708 1.2977 0.20299 0.49005 0.30449 1.0003 0.30451 1.5308v22c-2e-5 0.53042-0.10152 1.0407-0.30451 1.5307-0.20299 0.49006-0.49202 0.92264-0.86708 1.2977-0.37507 0.37506-0.80765 0.66409-1.2977 0.86708s-1.0003 0.30449-1.5307 0.30451h-120.62c-1.6667 0-2.5 0.75-3.3333 1.5l-3.3333 3c-0.83333 0.75-1.6667 1.5-3.3333 1.5h-10c-1.6667 0-2.5-0.75-3.3333-1.5l-3.3333-3c-0.83333-0.75-1.6667-1.5-3.3333-1.5h-5c-0.53043-2e-5 -1.0407-0.10152-1.5307-0.30451-0.49006-0.20299-0.92262-0.49202-1.2977-0.86708-0.37507-0.37507-0.6641-0.80765-0.86709-1.2977-0.20299-0.49005-0.30448-1.0003-0.30448-1.5307z" fill="#ffab19"/>
<path d="m0 4c0-0.53043 0.10149-1.0407 0.30448-1.5307 0.20299-0.49006 0.49202-0.92262 0.86709-1.2977 0.37507-0.37507 0.80764-0.6641 1.2977-0.86709 0.49006-0.20299 1.0003-0.30448 1.5307-0.30448h5c1.6667 0 2.5 0.75 3.3333 1.5l3.3333 3c0.83333 0.75 1.6667 1.5 3.3333 1.5h10c1.6667 0 2.5-0.75 3.3333-1.5l3.3333-3c0.83333-0.75 1.6667-1.5 3.3333-1.5h120.62c0.53042 0 1.0407 0.10149 1.5307 0.30448 0.49005 0.20299 0.92263 0.49202 1.2977 0.86709 0.37506 0.37507 0.66409 0.80764 0.86708 1.2977 0.20299 0.49006 0.30449 1.0003 0.30451 1.5307v36c-2e-5 0.53043-0.10152 1.0407-0.30451 1.5307s-0.49202 0.92262-0.86708 1.2977c-0.37507 0.37507-0.80765 0.6641-1.2977 0.86709-0.49005 0.20299-1.0003 0.30448-1.5307 0.30448h-98.617c-1.6667 0-2.5 0.75-3.3333 1.5l-3.3333 3c-0.83333 0.75-1.6667 1.5-3.3333 1.5h-10c-1.6667 0-2.5-0.75-3.3333-1.5l-3.3333-3c-0.83333-0.75-1.6667-1.5-3.3333-1.5h-5c-0.53043 0-1.0407 0.10149-1.5307 0.30448-0.49006 0.20299-0.92262 0.49202-1.2977 0.86709-0.37507 0.37507-0.6641 0.80764-0.86709 1.2977-0.20299 0.49006-0.30448 1.0003-0.30448 1.5307v117.2c-2e-6 0.53042 0.10149 1.0407 0.30448 1.5307 0.20299 0.49005 0.49202 0.92263 0.86709 1.2977 0.37507 0.37506 0.80764 0.66409 1.2977 0.8671 0.49006 0.20299 1.0003 0.30447 1.5307 0.30449h5c1.6667 0 2.5 0.75 3.3333 1.5l3.3333 3c0.83333 0.75 1.6667 1.5 3.3333 1.5h10c1.6667 0 2.5-0.75 3.3333-1.5l3.3333-3c0.83333-0.75 1.6667-1.5 3.3333-1.5h98.617c0.53042 0 1.0407 0.10148 1.5307 0.30447s0.92263 0.49202 1.2977 0.8671c0.37506 0.37506 0.66409 0.80761 0.86708 1.2977 0.20299 0.49005 0.30449 1.0003 0.30451 1.5308v22c-2e-5 0.53042-0.10152 1.0407-0.30451 1.5307-0.20299 0.49006-0.49202 0.92264-0.86708 1.2977-0.37507 0.37506-0.80765 0.66409-1.2977 0.86708s-1.0003 0.30449-1.5307 0.30451h-120.62c-1.6667 0-2.5 0.75-3.3333 1.5l-3.3333 3c-0.83333 0.75-1.6667 1.5-3.3333 1.5h-10c-1.6667 0-2.5-0.75-3.3333-1.5l-3.3333-3c-0.83333-0.75-1.6667-1.5-3.3333-1.5h-5c-0.53043-2e-5 -1.0407-0.10152-1.5307-0.30451-0.49006-0.20299-0.92262-0.49202-1.2977-0.86708-0.37507-0.37507-0.6641-0.80765-0.86709-1.2977-0.20299-0.49005-0.30448-1.0003-0.30448-1.5307z" fill="none" stroke="#bf8013" stroke-miterlimit="10"/>
</g>
<g transform="matrix(1.0007 0 0 .9992 102.41 90.424)">
<path d="m16 0h9.7969c1.0506 0 2.0911 0.10248 3.1214 0.30744 1.0304 0.20496 2.0309 0.50845 3.0015 0.91049 0.9706 0.40204 1.8927 0.89489 2.7662 1.4786 0.87352 0.58367 1.6817 1.2469 2.4246 1.9898 0.74287 0.74287 1.4061 1.5511 1.9898 2.4246 0.58367 0.87352 1.0765 1.7956 1.4786 2.7662 0.40204 0.97061 0.70554 1.9711 0.91049 3.0015 0.20496 1.0304 0.30744 2.0709 0.30744 3.1214 0 1.0506-0.10248 2.0911-0.30744 3.1214-0.20496 1.0304-0.50845 2.0309-0.91049 3.0015-0.40204 0.9706-0.89489 1.8927-1.4786 2.7662-0.58367 0.87352-1.2469 1.6817-1.9898 2.4246-0.74287 0.74287-1.5511 1.4061-2.4246 1.9898-0.87352 0.58367-1.7956 1.0765-2.7662 1.4786-0.9706 0.40204-1.9711 0.70554-3.0015 0.91049-1.0304 0.20496-2.0709 0.30744-3.1214 0.30744h-9.7969c-1.0506-2e-6 -2.0911-0.10248-3.1214-0.30744-1.0304-0.20496-2.0309-0.50846-3.0015-0.91049-0.9706-0.40204-1.8927-0.89489-2.7662-1.4786-0.87352-0.58367-1.6817-1.2469-2.4246-1.9898-0.74287-0.74287-1.4061-1.5511-1.9898-2.4246-0.58367-0.87352-1.0765-1.7956-1.4786-2.7662-0.40204-0.97061-0.70553-1.9711-0.91049-3.0015-0.20496-1.0304-0.30744-2.0709-0.30744-3.1214s0.10248-2.0911 0.30744-3.1214c0.20496-1.0304 0.50845-2.0309 0.91049-3.0015 0.40204-0.9706 0.89489-1.8927 1.4786-2.7662 0.58367-0.87352 1.2469-1.6817 1.9898-2.4246s1.5511-1.4061 2.4246-1.9898c0.87352-0.58367 1.7956-1.0765 2.7662-1.4786 0.97061-0.40204 1.9711-0.70554 3.0015-0.91049 1.0304-0.20496 2.0709-0.30744 3.1214-0.30744z" fill="#fff"/>
<path d="m16 0h9.7969c1.0506 0 2.0911 0.10248 3.1214 0.30744 1.0304 0.20496 2.0309 0.50845 3.0015 0.91049 0.9706 0.40204 1.8927 0.89489 2.7662 1.4786 0.87352 0.58367 1.6817 1.2469 2.4246 1.9898 0.74287 0.74287 1.4061 1.5511 1.9898 2.4246 0.58367 0.87352 1.0765 1.7956 1.4786 2.7662 0.40204 0.97061 0.70554 1.9711 0.91049 3.0015 0.20496 1.0304 0.30744 2.0709 0.30744 3.1214 0 1.0506-0.10248 2.0911-0.30744 3.1214-0.20496 1.0304-0.50845 2.0309-0.91049 3.0015-0.40204 0.9706-0.89489 1.8927-1.4786 2.7662-0.58367 0.87352-1.2469 1.6817-1.9898 2.4246-0.74287 0.74287-1.5511 1.4061-2.4246 1.9898-0.87352 0.58367-1.7956 1.0765-2.7662 1.4786-0.9706 0.40204-1.9711 0.70554-3.0015 0.91049-1.0304 0.20496-2.0709 0.30744-3.1214 0.30744h-9.7969c-1.0506-2e-6 -2.0911-0.10248-3.1214-0.30744-1.0304-0.20496-2.0309-0.50846-3.0015-0.91049-0.9706-0.40204-1.8927-0.89489-2.7662-1.4786-0.87352-0.58367-1.6817-1.2469-2.4246-1.9898-0.74287-0.74287-1.4061-1.5511-1.9898-2.4246-0.58367-0.87352-1.0765-1.7956-1.4786-2.7662-0.40204-0.97061-0.70553-1.9711-0.91049-3.0015-0.20496-1.0304-0.30744-2.0709-0.30744-3.1214s0.10248-2.0911 0.30744-3.1214c0.20496-1.0304 0.50845-2.0309 0.91049-3.0015 0.40204-0.9706 0.89489-1.8927 1.4786-2.7662 0.58367-0.87352 1.2469-1.6817 1.9898-2.4246s1.5511-1.4061 2.4246-1.9898c0.87352-0.58367 1.7956-1.0765 2.7662-1.4786 0.97061-0.40204 1.9711-0.70554 3.0015-0.91049 1.0304-0.20496 2.0709-0.30744 3.1214-0.30744z" fill="none" stroke="#bf8013" stroke-miterlimit="10"/>
</g>
<g transform="matrix(1.0008 0 0 .99925 114.42 97.419)">
<text transform="translate(0 14.484)" fill="#575e75" font-family="Arimo" font-size="15.99px" font-weight="bold"><tspan x="0 8.8897552" y="0">10</tspan></text>
</g>
<g transform="matrix(1.0007 0 0 .9992 60.356 128.39)">
<path d="m0 4c0-0.53043 0.10149-1.0407 0.30448-1.5307 0.20299-0.49006 0.49202-0.92262 0.86709-1.2977 0.37507-0.37507 0.80764-0.6641 1.2977-0.86709 0.49006-0.20299 1.0003-0.30448 1.5307-0.30448h5c1.6667 0 2.5 0.75 3.3333 1.5l3.3333 3c0.83333 0.75 1.6667 1.5 3.3333 1.5h10c1.6667 0 2.5-0.75 3.3333-1.5l3.3333-3c0.83333-0.75 1.6667-1.5 3.3333-1.5h477.4c0.5304 0 1.0406 0.10149 1.5306 0.30448 0.49005 0.20299 0.92267 0.49202 1.2977 0.86709 0.37506 0.37507 0.66406 0.80764 0.86707 1.2977 0.203 0.49006 0.3045 1.0003 0.30456 1.5307v46c-6e-5 0.53043-0.10156 1.0407-0.30456 1.5307-0.20301 0.49006-0.49201 0.92263-0.86707 1.2977-0.37506 0.37507-0.80768 0.6641-1.2977 0.86708-0.49005 0.20299-1.0002 0.30449-1.5306 0.30449h-455.4c-1.6667 0-2.5 0.75-3.3333 1.5l-3.3333 3c-0.83333 0.75-1.6667 1.5-3.3333 1.5h-10c-1.6667 0-2.5-0.75-3.3333-1.5l-3.3333-3c-0.83333-0.75-1.6667-1.5-3.3333-1.5h-5c-0.53043 4e-6 -1.0407 0.1015-1.5307 0.30448-0.49006 0.20299-0.92262 0.49202-1.2977 0.86709-0.37507 0.37507-0.6641 0.80764-0.86709 1.2977-0.20299 0.49006-0.30448 1.0003-0.30448 1.5307v39.2c-2e-6 0.53043 0.10149 1.0407 0.30448 1.5307 0.20299 0.49005 0.49202 0.92262 0.86709 1.2977 0.37507 0.37507 0.80764 0.66409 1.2977 0.86708 0.49006 0.20299 1.0003 0.30449 1.5307 0.3045h5c1.6667 0 2.5 0.75 3.3333 1.5l3.3333 3c0.83333 0.75 1.6667 1.5 3.3333 1.5h10c1.6667 0 2.5-0.75 3.3333-1.5l3.3333-3c0.83333-0.75 1.6667-1.5 3.3333-1.5h455.4c0.5304 0 1.0406 0.10149 1.5307 0.30448 0.49005 0.20298 0.92261 0.49201 1.2977 0.86709 0.37506 0.37507 0.66406 0.80763 0.86701 1.2977 0.203 0.49006 0.3045 1.0003 0.30456 1.5307v-4 24-2c-6e-5 0.53042-0.10156 1.0407-0.30456 1.5307-0.20295 0.49005-0.49195 0.92262-0.86701 1.2977-0.37512 0.37507-0.80768 0.6641-1.2977 0.86708-0.49005 0.20299-1.0003 0.30449-1.5307 0.3045h-477.4c-1.6667 0-2.5 0.75-3.3333 1.5l-3.3333 3c-0.83333 0.75-1.6667 1.5-3.3333 1.5h-10c-1.6667 0-2.5-0.75-3.3333-1.5l-3.3333-3c-0.83333-0.75-1.6667-1.5-3.3333-1.5h-5c-0.53043-1e-5 -1.0407-0.10151-1.5307-0.30451-0.49006-0.20298-0.92262-0.492-1.2977-0.86707-0.37507-0.37508-0.6641-0.80765-0.86709-1.2977-0.20299-0.49005-0.30448-1.0003-0.30448-1.5307z" fill="#ff8c1a"/>
<path d="m0 4c0-0.53043 0.10149-1.0407 0.30448-1.5307 0.20299-0.49006 0.49202-0.92262 0.86709-1.2977 0.37507-0.37507 0.80764-0.6641 1.2977-0.86709 0.49006-0.20299 1.0003-0.30448 1.5307-0.30448h5c1.6667 0 2.5 0.75 3.3333 1.5l3.3333 3c0.83333 0.75 1.6667 1.5 3.3333 1.5h10c1.6667 0 2.5-0.75 3.3333-1.5l3.3333-3c0.83333-0.75 1.6667-1.5 3.3333-1.5h477.4c0.5304 0 1.0406 0.10149 1.5306 0.30448 0.49005 0.20299 0.92267 0.49202 1.2977 0.86709 0.37506 0.37507 0.66406 0.80764 0.86707 1.2977 0.203 0.49006 0.3045 1.0003 0.30456 1.5307v46c-6e-5 0.53043-0.10156 1.0407-0.30456 1.5307-0.20301 0.49006-0.49201 0.92263-0.86707 1.2977-0.37506 0.37507-0.80768 0.6641-1.2977 0.86708-0.49005 0.20299-1.0002 0.30449-1.5306 0.30449h-455.4c-1.6667 0-2.5 0.75-3.3333 1.5l-3.3333 3c-0.83333 0.75-1.6667 1.5-3.3333 1.5h-10c-1.6667 0-2.5-0.75-3.3333-1.5l-3.3333-3c-0.83333-0.75-1.6667-1.5-3.3333-1.5h-5c-0.53043 4e-6 -1.0407 0.1015-1.5307 0.30448-0.49006 0.20299-0.92262 0.49202-1.2977 0.86709-0.37507 0.37507-0.6641 0.80764-0.86709 1.2977-0.20299 0.49006-0.30448 1.0003-0.30448 1.5307v39.2c-2e-6 0.53043 0.10149 1.0407 0.30448 1.5307 0.20299 0.49005 0.49202 0.92262 0.86709 1.2977 0.37507 0.37507 0.80764 0.66409 1.2977 0.86708 0.49006 0.20299 1.0003 0.30449 1.5307 0.3045h5c1.6667 0 2.5 0.75 3.3333 1.5l3.3333 3c0.83333 0.75 1.6667 1.5 3.3333 1.5h10c1.6667 0 2.5-0.75 3.3333-1.5l3.3333-3c0.83333-0.75 1.6667-1.5 3.3333-1.5h455.4c0.5304 0 1.0406 0.10149 1.5307 0.30448 0.49005 0.20298 0.92261 0.49201 1.2977 0.86709 0.37506 0.37507 0.66406 0.80763 0.86701 1.2977 0.203 0.49006 0.3045 1.0003 0.30456 1.5307v-4 24-2c-6e-5 0.53042-0.10156 1.0407-0.30456 1.5307-0.20295 0.49005-0.49195 0.92262-0.86701 1.2977-0.37512 0.37507-0.80768 0.6641-1.2977 0.86708-0.49005 0.20299-1.0003 0.30449-1.5307 0.3045h-477.4c-1.6667 0-2.5 0.75-3.3333 1.5l-3.3333 3c-0.83333 0.75-1.6667 1.5-3.3333 1.5h-10c-1.6667 0-2.5-0.75-3.3333-1.5l-3.3333-3c-0.83333-0.75-1.6667-1.5-3.3333-1.5h-5c-0.53043-1e-5 -1.0407-0.10151-1.5307-0.30451-0.49006-0.20298-0.92262-0.492-1.2977-0.86707-0.37507-0.37508-0.6641-0.80765-0.86709-1.2977-0.20299-0.49005-0.30448-1.0003-0.30448-1.5307z" fill="none" stroke="#bf6914" stroke-miterlimit="10"/>
</g>
<g transform="matrix(1.0007 0 0 .9992 99.384 130.39)">
<path d="m24 0h425.4c0.78604 0 1.5702 0.038522 2.3524 0.11557 0.78226 0.077044 1.5588 0.19224 2.3297 0.34559 0.77094 0.15335 1.5325 0.34411 2.2847 0.57228 0.75217 0.22817 1.4914 0.49266 2.2176 0.79346 0.72619 0.3008 1.4359 0.63647 2.1292 1.007 0.69321 0.37053 1.3666 0.77414 2.0201 1.2108 0.6536 0.4367 1.2842 0.90437 1.8918 1.403 0.6076 0.49865 1.1893 1.0259 1.7451 1.5817 0.55582 0.55581 1.0831 1.1375 1.5817 1.7451 0.49862 0.60761 0.96631 1.2382 1.403 1.8918 0.43671 0.65356 0.84033 1.3269 1.2108 2.0202 0.37051 0.69322 0.70614 1.4029 1.0069 2.1291 0.30081 0.7262 0.56533 1.4654 0.79351 2.2176s0.41892 1.5137 0.57224 2.2847c0.15338 0.77092 0.26858 1.5475 0.34561 2.3298 0.0771 0.78224 0.1156 1.5664 0.1156 2.3524 0 0.78603-0.0385 1.5702-0.11557 2.3524-0.0771 0.78225-0.19226 1.5588-0.34561 2.3298-0.15332 0.77093-0.34409 1.5325-0.57227 2.2847-0.22818 0.75218-0.49267 1.4914-0.79348 2.2176-0.30082 0.7262-0.63645 1.4359-1.007 2.1291-0.37052 0.69322-0.77414 1.3666-1.2109 2.0202-0.43667 0.65356-0.90436 1.2841-1.403 1.8918-0.49863 0.60761-1.0259 1.1893-1.5817 1.7451-0.55578 0.5558-1.1375 1.083-1.7451 1.5817-0.60764 0.49865-1.2382 0.96632-1.8918 1.403-0.65356 0.4367-1.327 0.8403-2.0202 1.2108-0.69324 0.37053-1.403 0.7062-2.1292 1.007-0.7262 0.3008-1.4654 0.56529-2.2176 0.79346-0.75217 0.22817-1.5137 0.41893-2.2847 0.57227-0.7709 0.15335-1.5474 0.26855-2.3297 0.34559-0.7822 0.077045-1.5664 0.11557-2.3524 0.11557h-425.4c-0.78603 0-1.5702-0.03852-2.3524-0.11557-0.78224-0.07705-1.5588-0.19225-2.3298-0.34559-0.77092-0.15334-1.5325-0.3441-2.2847-0.57227-0.75218-0.22818-1.4914-0.49266-2.2176-0.79346-0.7262-0.3008-1.4359-0.63647-2.1291-1.007-0.69322-0.37053-1.3666-0.77415-2.0202-1.2108-0.65356-0.43669-1.2841-0.90436-1.8918-1.403-0.60761-0.49865-1.1893-1.0259-1.7451-1.5817-0.55581-0.5558-1.083-1.1375-1.5817-1.7451-0.49865-0.60761-0.96633-1.2382-1.403-1.8918-0.43669-0.65356-0.84031-1.3269-1.2108-2.0202-0.37053-0.69322-0.7062-1.4029-1.007-2.1291-0.3008-0.7262-0.56529-1.4654-0.79346-2.2176-0.22817-0.75218-0.41893-1.5137-0.57228-2.2847-0.15335-0.77092-0.26854-1.5475-0.34559-2.3298-0.077044-0.78224-0.11557-1.5664-0.11557-2.3524 0-0.78603 0.038522-1.5702 0.11557-2.3524 0.077044-0.78224 0.19224-1.5588 0.34559-2.3298 0.15335-0.77093 0.34411-1.5325 0.57228-2.2847 0.22817-0.75218 0.49266-1.4914 0.79346-2.2176 0.3008-0.7262 0.63647-1.4359 1.007-2.1291s0.77414-1.3666 1.2108-2.0202c0.4367-0.65356 0.90437-1.2841 1.403-1.8918 0.49865-0.60761 1.0259-1.1893 1.5817-1.7451 0.55581-0.55581 1.1375-1.083 1.7451-1.5817 0.60761-0.49865 1.2382-0.96633 1.8918-1.403 0.65356-0.43669 1.3269-0.84031 2.0202-1.2108 0.69322-0.37053 1.4029-0.7062 2.1291-1.007 0.7262-0.3008 1.4654-0.56529 2.2176-0.79346 0.75218-0.22817 1.5137-0.41893 2.2847-0.57228 0.77092-0.15335 1.5475-0.26854 2.3298-0.34559 0.78224-0.077044 1.5664-0.11557 2.3524-0.11557z" fill="#21a176"/>
<path d="m24 0h425.4c0.78604 0 1.5702 0.038522 2.3524 0.11557 0.78226 0.077044 1.5588 0.19224 2.3297 0.34559 0.77094 0.15335 1.5325 0.34411 2.2847 0.57228 0.75217 0.22817 1.4914 0.49266 2.2176 0.79346 0.72619 0.3008 1.4359 0.63647 2.1292 1.007 0.69321 0.37053 1.3666 0.77414 2.0201 1.2108 0.6536 0.4367 1.2842 0.90437 1.8918 1.403 0.6076 0.49865 1.1893 1.0259 1.7451 1.5817 0.55582 0.55581 1.0831 1.1375 1.5817 1.7451 0.49862 0.60761 0.96631 1.2382 1.403 1.8918 0.43671 0.65356 0.84033 1.3269 1.2108 2.0202 0.37051 0.69322 0.70614 1.4029 1.0069 2.1291 0.30081 0.7262 0.56533 1.4654 0.79351 2.2176s0.41892 1.5137 0.57224 2.2847c0.15338 0.77092 0.26858 1.5475 0.34561 2.3298 0.0771 0.78224 0.1156 1.5664 0.1156 2.3524 0 0.78603-0.0385 1.5702-0.11557 2.3524-0.0771 0.78225-0.19226 1.5588-0.34561 2.3298-0.15332 0.77093-0.34409 1.5325-0.57227 2.2847-0.22818 0.75218-0.49267 1.4914-0.79348 2.2176-0.30082 0.7262-0.63645 1.4359-1.007 2.1291-0.37052 0.69322-0.77414 1.3666-1.2109 2.0202-0.43667 0.65356-0.90436 1.2841-1.403 1.8918-0.49863 0.60761-1.0259 1.1893-1.5817 1.7451-0.55578 0.5558-1.1375 1.083-1.7451 1.5817-0.60764 0.49865-1.2382 0.96632-1.8918 1.403-0.65356 0.4367-1.327 0.8403-2.0202 1.2108-0.69324 0.37053-1.403 0.7062-2.1292 1.007-0.7262 0.3008-1.4654 0.56529-2.2176 0.79346-0.75217 0.22817-1.5137 0.41893-2.2847 0.57227-0.7709 0.15335-1.5474 0.26855-2.3297 0.34559-0.7822 0.077045-1.5664 0.11557-2.3524 0.11557h-425.4c-0.78603 0-1.5702-0.03852-2.3524-0.11557-0.78224-0.07705-1.5588-0.19225-2.3298-0.34559-0.77092-0.15334-1.5325-0.3441-2.2847-0.57227-0.75218-0.22818-1.4914-0.49266-2.2176-0.79346-0.7262-0.3008-1.4359-0.63647-2.1291-1.007-0.69322-0.37053-1.3666-0.77415-2.0202-1.2108-0.65356-0.43669-1.2841-0.90436-1.8918-1.403-0.60761-0.49865-1.1893-1.0259-1.7451-1.5817-0.55581-0.5558-1.083-1.1375-1.5817-1.7451-0.49865-0.60761-0.96633-1.2382-1.403-1.8918-0.43669-0.65356-0.84031-1.3269-1.2108-2.0202-0.37053-0.69322-0.7062-1.4029-1.007-2.1291-0.3008-0.7262-0.56529-1.4654-0.79346-2.2176-0.22817-0.75218-0.41893-1.5137-0.57228-2.2847-0.15335-0.77092-0.26854-1.5475-0.34559-2.3298-0.077044-0.78224-0.11557-1.5664-0.11557-2.3524 0-0.78603 0.038522-1.5702 0.11557-2.3524 0.077044-0.78224 0.19224-1.5588 0.34559-2.3298 0.15335-0.77093 0.34411-1.5325 0.57228-2.2847 0.22817-0.75218 0.49266-1.4914 0.79346-2.2176 0.3008-0.7262 0.63647-1.4359 1.007-2.1291s0.77414-1.3666 1.2108-2.0202c0.4367-0.65356 0.90437-1.2841 1.403-1.8918 0.49865-0.60761 1.0259-1.1893 1.5817-1.7451 0.55581-0.55581 1.1375-1.083 1.7451-1.5817 0.60761-0.49865 1.2382-0.96633 1.8918-1.403 0.65356-0.43669 1.3269-0.84031 2.0202-1.2108 0.69322-0.37053 1.4029-0.7062 2.1291-1.007 0.7262-0.3008 1.4654-0.56529 2.2176-0.79346 0.75218-0.22817 1.5137-0.41893 2.2847-0.57228 0.77092-0.15335 1.5475-0.26854 2.3298-0.34559 0.78224-0.077044 1.5664-0.11557 2.3524-0.11557z" fill="none" stroke="#197959" stroke-miterlimit="10"/>
</g>
<g transform="matrix(1.0007 0 0 .9992 103.39 134.39)">
<path d="m20 0h251.15c1.3132 0 2.6138 0.1281 3.9018 0.38429 1.288 0.2562 2.5386 0.63557 3.7519 1.1381 1.2133 0.50255 2.3659 1.1186 3.4578 1.8482 1.0919 0.72959 2.1021 1.5587 3.0307 2.4873 0.92856 0.92859 1.7576 1.9388 2.4872 3.0307 0.72958 1.0919 1.3457 2.2445 1.8482 3.4577 0.50253 1.2133 0.88189 2.4639 1.1381 3.7519 0.25619 1.288 0.38431 2.5886 0.38434 3.9018-3e-5 1.3132-0.12815 2.6138-0.38434 3.9018-0.2562 1.288-0.63556 2.5386-1.1381 3.7519-0.50257 1.2133-1.1187 2.3658-1.8482 3.4577-0.72958 1.0919-1.5586 2.1021-2.4872 3.0307-0.92859 0.92858-1.9388 1.7577-3.0308 2.4873-1.0919 0.72959-2.2444 1.3457-3.4577 1.8482-1.2132 0.50255-2.4639 0.88192-3.7519 1.1381-1.288 0.2562-2.5886 0.3843-3.9018 0.3843h-251.15c-1.3132-4e-6 -2.6138-0.1281-3.9018-0.3843-1.288-0.2562-2.5386-0.63557-3.7519-1.1381s-2.3658-1.1186-3.4577-1.8482c-1.0919-0.72958-2.1021-1.5587-3.0307-2.4873s-1.7577-1.9388-2.4873-3.0307c-0.72959-1.0919-1.3457-2.2445-1.8482-3.4577-0.50255-1.2133-0.88192-2.4639-1.1381-3.7519-0.2562-1.288-0.38429-2.5886-0.38429-3.9018 0-1.3132 0.1281-2.6138 0.38429-3.9018 0.2562-1.288 0.63557-2.5386 1.1381-3.7519 0.50255-1.2133 1.1186-2.3658 1.8482-3.4577 0.72959-1.0919 1.5587-2.1021 2.4873-3.0307 0.92859-0.92859 1.9388-1.7577 3.0307-2.4873 1.0919-0.72959 2.2445-1.3457 3.4577-1.8482 1.2133-0.50255 2.4639-0.88192 3.7519-1.1381 1.288-0.2562 2.5886-0.38429 3.9018-0.38429z" fill="#5cb1d6"/>
<path d="m20 0h251.15c1.3132 0 2.6138 0.1281 3.9018 0.38429 1.288 0.2562 2.5386 0.63557 3.7519 1.1381 1.2133 0.50255 2.3659 1.1186 3.4578 1.8482 1.0919 0.72959 2.1021 1.5587 3.0307 2.4873 0.92856 0.92859 1.7576 1.9388 2.4872 3.0307 0.72958 1.0919 1.3457 2.2445 1.8482 3.4577 0.50253 1.2133 0.88189 2.4639 1.1381 3.7519 0.25619 1.288 0.38431 2.5886 0.38434 3.9018-3e-5 1.3132-0.12815 2.6138-0.38434 3.9018-0.2562 1.288-0.63556 2.5386-1.1381 3.7519-0.50257 1.2133-1.1187 2.3658-1.8482 3.4577-0.72958 1.0919-1.5586 2.1021-2.4872 3.0307-0.92859 0.92858-1.9388 1.7577-3.0308 2.4873-1.0919 0.72959-2.2444 1.3457-3.4577 1.8482-1.2132 0.50255-2.4639 0.88192-3.7519 1.1381-1.288 0.2562-2.5886 0.3843-3.9018 0.3843h-251.15c-1.3132-4e-6 -2.6138-0.1281-3.9018-0.3843-1.288-0.2562-2.5386-0.63557-3.7519-1.1381s-2.3658-1.1186-3.4577-1.8482c-1.0919-0.72958-2.1021-1.5587-3.0307-2.4873s-1.7577-1.9388-2.4873-3.0307c-0.72959-1.0919-1.3457-2.2445-1.8482-3.4577-0.50255-1.2133-0.88192-2.4639-1.1381-3.7519-0.2562-1.288-0.38429-2.5886-0.38429-3.9018 0-1.3132 0.1281-2.6138 0.38429-3.9018 0.2562-1.288 0.63557-2.5386 1.1381-3.7519 0.50255-1.2133 1.1186-2.3658 1.8482-3.4577 0.72959-1.0919 1.5587-2.1021 2.4873-3.0307 0.92859-0.92859 1.9388-1.7577 3.0307-2.4873 1.0919-0.72959 2.2445-1.3457 3.4577-1.8482 1.2133-0.50255 2.4639-0.88192 3.7519-1.1381 1.288-0.2562 2.5886-0.38429 3.9018-0.38429z" fill="none" stroke="#4585a1" stroke-miterlimit="10"/>
</g>
<g transform="matrix(1.0007 0 0 .9992 159.43 138.39)">
<path d="m16 0h108.03c1.0506 0 2.091 0.10248 3.1214 0.30744 1.0304 0.20496 2.0309 0.50845 3.0015 0.91049 0.9706 0.40204 1.8927 0.89489 2.7662 1.4786s1.6817 1.2469 2.4246 1.9898c0.74286 0.74287 1.4061 1.5511 1.9898 2.4246 0.58366 0.87352 1.0765 1.7956 1.4785 2.7662 0.40204 0.97061 0.70554 1.9711 0.91051 3.0015 0.20496 1.0304 0.30743 2.0709 0.30745 3.1214-2e-5 1.0506-0.10249 2.0911-0.30745 3.1214-0.20497 1.0304-0.50847 2.0309-0.91051 3.0015-0.40202 0.9706-0.89488 1.8927-1.4785 2.7662-0.58367 0.87352-1.2469 1.6817-1.9898 2.4246-0.74287 0.74287-1.5511 1.4061-2.4246 1.9898-0.87352 0.58367-1.7956 1.0765-2.7662 1.4786-0.97061 0.40204-1.9711 0.70554-3.0015 0.91049-1.0304 0.20496-2.0709 0.30744-3.1214 0.30744h-108.03c-1.0506-2e-6 -2.0911-0.10248-3.1214-0.30744-1.0304-0.20496-2.0309-0.50846-3.0015-0.91049-0.9706-0.40204-1.8927-0.89489-2.7662-1.4786-0.87352-0.58367-1.6817-1.2469-2.4246-1.9898-0.74287-0.74287-1.4061-1.5511-1.9898-2.4246-0.58367-0.87352-1.0765-1.7956-1.4786-2.7662-0.40204-0.97061-0.70553-1.9711-0.91049-3.0015-0.20496-1.0304-0.30744-2.0709-0.30744-3.1214s0.10248-2.0911 0.30744-3.1214c0.20496-1.0304 0.50845-2.0309 0.91049-3.0015 0.40204-0.9706 0.89489-1.8927 1.4786-2.7662 0.58367-0.87352 1.2469-1.6817 1.9898-2.4246s1.5511-1.4061 2.4246-1.9898c0.87352-0.58367 1.7956-1.0765 2.7662-1.4786 0.97061-0.40204 1.9711-0.70554 3.0015-0.91049 1.0304-0.20496 2.0709-0.30744 3.1214-0.30744z" fill="#4e96b6"/>
<path d="m16 0h108.03c1.0506 0 2.091 0.10248 3.1214 0.30744 1.0304 0.20496 2.0309 0.50845 3.0015 0.91049 0.9706 0.40204 1.8927 0.89489 2.7662 1.4786s1.6817 1.2469 2.4246 1.9898c0.74286 0.74287 1.4061 1.5511 1.9898 2.4246 0.58366 0.87352 1.0765 1.7956 1.4785 2.7662 0.40204 0.97061 0.70554 1.9711 0.91051 3.0015 0.20496 1.0304 0.30743 2.0709 0.30745 3.1214-2e-5 1.0506-0.10249 2.0911-0.30745 3.1214-0.20497 1.0304-0.50847 2.0309-0.91051 3.0015-0.40202 0.9706-0.89488 1.8927-1.4785 2.7662-0.58367 0.87352-1.2469 1.6817-1.9898 2.4246-0.74287 0.74287-1.5511 1.4061-2.4246 1.9898-0.87352 0.58367-1.7956 1.0765-2.7662 1.4786-0.97061 0.40204-1.9711 0.70554-3.0015 0.91049-1.0304 0.20496-2.0709 0.30744-3.1214 0.30744h-108.03c-1.0506-2e-6 -2.0911-0.10248-3.1214-0.30744-1.0304-0.20496-2.0309-0.50846-3.0015-0.91049-0.9706-0.40204-1.8927-0.89489-2.7662-1.4786-0.87352-0.58367-1.6817-1.2469-2.4246-1.9898-0.74287-0.74287-1.4061-1.5511-1.9898-2.4246-0.58367-0.87352-1.0765-1.7956-1.4786-2.7662-0.40204-0.97061-0.70553-1.9711-0.91049-3.0015-0.20496-1.0304-0.30744-2.0709-0.30744-3.1214s0.10248-2.0911 0.30744-3.1214c0.20496-1.0304 0.50845-2.0309 0.91049-3.0015 0.40204-0.9706 0.89489-1.8927 1.4786-2.7662 0.58367-0.87352 1.2469-1.6817 1.9898-2.4246s1.5511-1.4061 2.4246-1.9898c0.87352-0.58367 1.7956-1.0765 2.7662-1.4786 0.97061-0.40204 1.9711-0.70554 3.0015-0.91049 1.0304-0.20496 2.0709-0.30744 3.1214-0.30744z" fill="none" stroke="#4585a1" stroke-miterlimit="10"/>
</g>
<g transform="matrix(1.0008 0 0 .99925 171.44 145.38)">
<text transform="translate(0 14.484)" fill="#ffffff" font-family="Arimo" font-size="15.99px" font-weight="bold"><tspan x="0 8.8897552 18.653656 23.094635 32.858536 39.079025 43.520004 52.40976 61.299515 71.063416 79.953171 89.717072" y="0">color sensor</tspan></text>
</g>
<g transform="matrix(.94481 0 0 .94339 275.54 150.23)">
<path d="m12.71 2.44c0.003271 0.67238-0.2334 1.2457-0.71 1.72l-3.92 3.92c-0.22942 0.22747-0.49351 0.40271-0.79226 0.52571-0.29875 0.123-0.60966 0.1845-0.93274 0.1845-0.32308 0-0.63399-0.0615-0.93274-0.1845-0.29875-0.123-0.56284-0.29824-0.79226-0.52571l-3.91-3.92c-0.47935-0.47314-0.71935-1.0465-0.72-1.72 0.0019283-0.673 0.23859-1.2497 0.71-1.73 0.29-0.24 0.72-0.71 5.65-0.71 4.93 0 5.39 0.46 5.64 0.71 0.47591 0.47848 0.71258 1.0551 0.71 1.73z" fill="#231f20" fill-opacity=".1"/>
<path d="m6.36 7.79c-0.39071-0.00338-0.72405-0.14338-1-0.42l-3.94-3.92c-0.26924-0.27897-0.40385-0.6123-0.40385-1s0.13462-0.72103 0.40385-1c0.56-0.56 9.31-0.56 9.87 0 0.26924 0.27897 0.40385 0.6123 0.40385 1s-0.13462 0.72103-0.40385 1l-3.92 3.92c-0.27872 0.27936-0.61538 0.41936-1.01 0.42z" fill="#fff"/>
</g>
<g transform="matrix(1.0007 0 0 .9992 115.4 141.38)">
<path d="m25 17.5c-2e-6 0.49246-0.04804 0.98018-0.14411 1.4632-0.09607 0.48299-0.23834 0.95198-0.42679 1.4069-0.18846 0.45497-0.41948 0.88719-0.69307 1.2967-0.2736 0.40946-0.5845 0.7883-0.93272 1.1365s-0.72706 0.65912-1.1365 0.93272c-0.40946 0.27359-0.84168 0.50462-1.2967 0.69307-0.45497 0.18846-0.92395 0.33072-1.4069 0.42679-0.483 0.096076-0.97072 0.14411-1.4632 0.14411-0.49246-2e-6 -0.98018-0.04804-1.4632-0.14411-0.483-0.09607-0.95198-0.23834-1.4069-0.42679-0.45497-0.18846-0.88719-0.41948-1.2967-0.69307-0.40946-0.2736-0.7883-0.5845-1.1365-0.93272s-0.65913-0.72706-0.93272-1.1365c-0.2736-0.40946-0.50462-0.84168-0.69308-1.2967-0.18846-0.45497-0.33072-0.92395-0.42679-1.4069-0.096074-0.483-0.14411-0.97072-0.14411-1.4632-1e-6 -0.49246 0.04804-0.98018 0.14411-1.4632 0.09607-0.483 0.23834-0.95198 0.42679-1.4069 0.18846-0.45497 0.41948-0.88719 0.69307-1.2967 0.2736-0.40946 0.5845-0.7883 0.93272-1.1365s0.72706-0.65913 1.1365-0.93272c0.40946-0.2736 0.84168-0.50462 1.2967-0.69307 0.45497-0.18846 0.92395-0.33072 1.4069-0.42679 0.483-0.096073 0.97072-0.14411 1.4632-0.14411s0.98018 0.04804 1.4632 0.14411c0.48299 0.09607 0.95198 0.23834 1.4069 0.42679 0.45497 0.18846 0.88719 0.41948 1.2967 0.69307 0.40946 0.27359 0.7883 0.5845 1.1365 0.93272s0.65912 0.72706 0.93272 1.1365c0.27359 0.40946 0.50462 0.84168 0.69307 1.2967 0.18846 0.45497 0.33072 0.92395 0.42679 1.4069 0.096076 0.483 0.14411 0.97072 0.14411 1.4632z" fill="#1ff500"/>
<path d="m15 17.5c-1e-6 0.49246-0.04804 0.98018-0.14411 1.4632-0.09607 0.48299-0.23834 0.95198-0.42679 1.4069-0.18846 0.45497-0.41948 0.88719-0.69307 1.2967s-0.5845 0.7883-0.93272 1.1365-0.72706 0.65912-1.1365 0.93272c-0.40946 0.27359-0.84168 0.50462-1.2966 0.69307-0.45497 0.18846-0.92395 0.33072-1.4069 0.42679-0.48299 0.096076-0.97072 0.14411-1.4632 0.14411-0.49246-2e-6 -0.98018-0.048038-1.4632-0.14411-0.48299-0.096073-0.95198-0.23834-1.4069-0.42679-0.45497-0.18846-0.88719-0.41948-1.2967-0.69307-0.40946-0.2736-0.7883-0.5845-1.1365-0.93272-0.34822-0.34822-0.65913-0.72706-0.93272-1.1365-0.27359-0.40946-0.50462-0.84168-0.69307-1.2967-0.18846-0.45497-0.33072-0.92395-0.42679-1.4069-0.096074-0.483-0.14411-0.97072-0.14411-1.4632s0.048037-0.98018 0.14411-1.4632c0.096074-0.483 0.23834-0.95198 0.42679-1.4069 0.18846-0.45497 0.41948-0.88719 0.69307-1.2967 0.27359-0.40946 0.5845-0.7883 0.93272-1.1365 0.34822-0.34822 0.72706-0.65913 1.1365-0.93272 0.40946-0.2736 0.84168-0.50462 1.2967-0.69307 0.45497-0.18846 0.92395-0.33072 1.4069-0.42679 0.48299-0.096073 0.97072-0.14411 1.4632-0.14411 0.49246 0 0.98018 0.04804 1.4632 0.14411 0.483 0.09607 0.95198 0.23834 1.4069 0.42679 0.45497 0.18846 0.88719 0.41948 1.2966 0.69307 0.40946 0.27359 0.7883 0.5845 1.1365 0.93272s0.65913 0.72706 0.93272 1.1365c0.27359 0.40946 0.50462 0.84168 0.69307 1.2967 0.18846 0.45497 0.33072 0.92395 0.42679 1.4069 0.096073 0.483 0.14411 0.97072 0.14411 1.4632z" fill="#f52900"/>
<path d="m20 7.5c-2e-6 0.49246-0.04804 0.98018-0.14411 1.4632-0.09608 0.483-0.23834 0.95198-0.42679 1.4069-0.18846 0.45497-0.41948 0.88719-0.69307 1.2966-0.2736 0.40946-0.5845 0.7883-0.93272 1.1365-0.34822 0.34822-0.72706 0.65913-1.1365 0.93272-0.40946 0.27359-0.84168 0.50462-1.2967 0.69307-0.45497 0.18846-0.92395 0.33072-1.4069 0.42679-0.48299 0.096073-0.97072 0.14411-1.4632 0.14411-0.49246-1e-6 -0.98018-0.048039-1.4632-0.14411-0.483-0.096073-0.95198-0.23834-1.4069-0.42679-0.45497-0.18846-0.88719-0.41948-1.2967-0.69307-0.40946-0.27359-0.7883-0.5845-1.1365-0.93272-0.34822-0.34822-0.65913-0.72706-0.93272-1.1365-0.27359-0.40946-0.50462-0.84168-0.69307-1.2966-0.18846-0.45497-0.33072-0.92395-0.42679-1.4069-0.096074-0.48299-0.14411-0.97072-0.14411-1.4632-5e-7 -0.49246 0.048036-0.98018 0.14411-1.4632 0.096074-0.48299 0.23834-0.95198 0.42679-1.4069 0.18846-0.45497 0.41948-0.88719 0.69307-1.2967 0.27359-0.40946 0.5845-0.7883 0.93272-1.1365 0.34822-0.34822 0.72706-0.65913 1.1365-0.93272 0.40946-0.27359 0.84168-0.50462 1.2967-0.69307 0.45497-0.18846 0.92395-0.33072 1.4069-0.42679 0.483-0.096074 0.97072-0.14411 1.4632-0.14411 0.49246 0 0.98018 0.048037 1.4632 0.14411 0.483 0.096074 0.95198 0.23834 1.4069 0.42679 0.45497 0.18846 0.88719 0.41948 1.2967 0.69307 0.40946 0.27359 0.7883 0.5845 1.1365 0.93272 0.34822 0.34822 0.65912 0.72706 0.93272 1.1365 0.27359 0.40946 0.50462 0.84168 0.69307 1.2967 0.18846 0.45497 0.33072 0.92395 0.42679 1.4069 0.096076 0.48299 0.14411 0.97072 0.14411 1.4632z" fill="#0050f5"/>
</g>
<g transform="matrix(1.0007 0 0 .9992 148.42 138.89)">
<path d="m2.5 0.5v29" fill="none" stroke="#000" stroke-miterlimit="10" stroke-opacity=".2625"/>
</g>
<g transform="matrix(1.0007 0 0 .9992 307.56 139.78)">
<path d="m4 0h67.117c0.53043 0 1.0407 0.10149 1.5307 0.30448 0.49005 0.20299 0.92262 0.49202 1.2977 0.86709 0.37507 0.37507 0.6641 0.80764 0.86709 1.2977 0.20299 0.49006 0.30448 1.0003 0.30449 1.5307v21.2c-8e-6 0.53043-0.1015 1.0407-0.30449 1.5307-0.20299 0.49006-0.49202 0.92262-0.86709 1.2977-0.37508 0.37507-0.80764 0.6641-1.2977 0.86709-0.49006 0.20299-1.0003 0.30448-1.5307 0.30449h-67.117c-0.53043-2e-6 -1.0407-0.1015-1.5307-0.30449-0.49006-0.20299-0.92262-0.49202-1.2977-0.86709-0.37507-0.37507-0.6641-0.80764-0.86709-1.2977-0.20299-0.49006-0.30448-1.0003-0.30448-1.5307v-21.2c0-0.53043 0.10149-1.0407 0.30448-1.5307 0.20299-0.49006 0.49202-0.92262 0.86709-1.2977 0.37507-0.37507 0.80764-0.6641 1.2977-0.86709 0.49006-0.20299 1.0003-0.30448 1.5307-0.30448z" fill="none" stroke="#4585a1" stroke-miterlimit="10"/>
</g>
<g transform="matrix(1.0008 0 0 .99925 307.56 139.78)">
<text transform="translate(7.9844 20.094)" fill="#ffffff" font-family="Arimo" font-size="15.99px" font-weight="bold"><tspan x="0 8.8897552 18.653656 23.094635 32.858536" y="0">color</tspan></text>
</g>
<g transform="matrix(.94481 0 0 .94339 362.72 150.23)">
<path d="m12.71 2.44c0.003271 0.67238-0.2334 1.2457-0.71 1.72l-3.92 3.92c-0.22942 0.22747-0.49351 0.40271-0.79226 0.52571-0.29875 0.123-0.60966 0.1845-0.93274 0.1845-0.32308 0-0.63399-0.0615-0.93274-0.1845-0.29875-0.123-0.56284-0.29824-0.79226-0.52571l-3.91-3.92c-0.47935-0.47314-0.71935-1.0465-0.72-1.72 0.0019283-0.673 0.23859-1.2497 0.71-1.73 0.29-0.24 0.72-0.71 5.65-0.71 4.93 0 5.39 0.46 5.64 0.71 0.47591 0.47848 0.71258 1.0551 0.71 1.73z" fill="#231f20" fill-opacity=".1"/>
<path d="m6.36 7.79c-0.39071-0.00338-0.72405-0.14338-1-0.42l-3.94-3.92c-0.26924-0.27897-0.40385-0.6123-0.40385-1s0.13462-0.72103 0.40385-1c0.56-0.56 9.31-0.56 9.87 0 0.26924 0.27897 0.40385 0.6123 0.40385 1s-0.13462 0.72103-0.40385 1l-3.92 3.92c-0.27872 0.27936-0.61538 0.41936-1.01 0.42z" fill="#fff"/>
</g>
<g transform="matrix(1.0007 0 0 .9992 465.48 134.39)">
<path d="m20 0h63.565c1.3132 0 2.6138 0.1281 3.9018 0.38429 1.288 0.2562 2.5386 0.63557 3.7519 1.1381 1.2132 0.50255 2.3658 1.1186 3.4577 1.8482 1.0919 0.72959 2.1021 1.5587 3.0307 2.4873 0.92858 0.92859 1.7577 1.9388 2.4873 3.0307 0.72958 1.0919 1.3456 2.2445 1.8482 3.4577s0.88193 2.4639 1.1381 3.7519c0.25619 1.288 0.38429 2.5886 0.3843 3.9018-1e-5 1.3132-0.12811 2.6138-0.3843 3.9018-0.2562 1.288-0.63557 2.5386-1.1381 3.7519-0.50255 1.2133-1.1186 2.3658-1.8482 3.4577-0.72958 1.0919-1.5587 2.1021-2.4873 3.0307-0.92859 0.92858-1.9388 1.7577-3.0307 2.4873-1.0919 0.72959-2.2445 1.3457-3.4577 1.8482-1.2133 0.50255-2.4639 0.88192-3.7519 1.1381-1.288 0.2562-2.5886 0.3843-3.9018 0.3843h-63.565c-1.3132-4e-6 -2.6138-0.1281-3.9018-0.3843-1.288-0.2562-2.5386-0.63557-3.7519-1.1381-1.2133-0.50255-2.3658-1.1186-3.4577-1.8482-1.0919-0.72958-2.1021-1.5587-3.0307-2.4873-0.92859-0.92858-1.7577-1.9388-2.4873-3.0307-0.72959-1.0919-1.3457-2.2445-1.8482-3.4577-0.50255-1.2133-0.88192-2.4639-1.1381-3.7519-0.2562-1.288-0.38429-2.5886-0.38429-3.9018-9.3929e-8 -1.3132 0.1281-2.6138 0.38429-3.9018 0.2562-1.288 0.63557-2.5386 1.1381-3.7519 0.50255-1.2133 1.1186-2.3658 1.8482-3.4577s1.5587-2.1021 2.4873-3.0307c0.92859-0.92859 1.9388-1.7577 3.0307-2.4873 1.0919-0.72959 2.2445-1.3457 3.4577-1.8482 1.2133-0.50255 2.4639-0.88192 3.7519-1.1381 1.288-0.2562 2.5886-0.38429 3.9018-0.38429z" fill="#5cb1d6"/>
<path d="m20 0h63.565c1.3132 0 2.6138 0.1281 3.9018 0.38429 1.288 0.2562 2.5386 0.63557 3.7519 1.1381 1.2132 0.50255 2.3658 1.1186 3.4577 1.8482 1.0919 0.72959 2.1021 1.5587 3.0307 2.4873 0.92858 0.92859 1.7577 1.9388 2.4873 3.0307 0.72958 1.0919 1.3456 2.2445 1.8482 3.4577s0.88193 2.4639 1.1381 3.7519c0.25619 1.288 0.38429 2.5886 0.3843 3.9018-1e-5 1.3132-0.12811 2.6138-0.3843 3.9018-0.2562 1.288-0.63557 2.5386-1.1381 3.7519-0.50255 1.2133-1.1186 2.3658-1.8482 3.4577-0.72958 1.0919-1.5587 2.1021-2.4873 3.0307-0.92859 0.92858-1.9388 1.7577-3.0307 2.4873-1.0919 0.72959-2.2445 1.3457-3.4577 1.8482-1.2133 0.50255-2.4639 0.88192-3.7519 1.1381-1.288 0.2562-2.5886 0.3843-3.9018 0.3843h-63.565c-1.3132-4e-6 -2.6138-0.1281-3.9018-0.3843-1.288-0.2562-2.5386-0.63557-3.7519-1.1381-1.2133-0.50255-2.3658-1.1186-3.4577-1.8482-1.0919-0.72958-2.1021-1.5587-3.0307-2.4873-0.92859-0.92858-1.7577-1.9388-2.4873-3.0307-0.72959-1.0919-1.3457-2.2445-1.8482-3.4577-0.50255-1.2133-0.88192-2.4639-1.1381-3.7519-0.2562-1.288-0.38429-2.5886-0.38429-3.9018-9.3929e-8 -1.3132 0.1281-2.6138 0.38429-3.9018 0.2562-1.288 0.63557-2.5386 1.1381-3.7519 0.50255-1.2133 1.1186-2.3658 1.8482-3.4577s1.5587-2.1021 2.4873-3.0307c0.92859-0.92859 1.9388-1.7577 3.0307-2.4873 1.0919-0.72959 2.2445-1.3457 3.4577-1.8482 1.2133-0.50255 2.4639-0.88192 3.7519-1.1381 1.288-0.2562 2.5886-0.38429 3.9018-0.38429z" fill="none" stroke="#4585a1" stroke-miterlimit="10"/>
</g>
<g transform="matrix(1.0007 0 0 .9992 477.49 143.72)">
<path d="m4 0h18.667c0.53043 0 1.0407 0.10149 1.5307 0.30448 0.49006 0.20299 0.92262 0.49202 1.2977 0.86709 0.37507 0.37507 0.6641 0.80764 0.86709 1.2977 0.20299 0.49006 0.30448 1.0003 0.30448 1.5307v13.333c-2e-6 0.53043-0.1015 1.0407-0.30448 1.5307-0.20299 0.49006-0.49202 0.92262-0.86709 1.2977-0.37507 0.37507-0.80764 0.6641-1.2977 0.86709-0.49006 0.20299-1.0003 0.30448-1.5307 0.30448h-18.667c-0.53043-2e-6 -1.0407-0.1015-1.5307-0.30448-0.49006-0.20299-0.92262-0.49202-1.2977-0.86709-0.37507-0.37507-0.6641-0.80764-0.86709-1.2977-0.20299-0.49006-0.30448-1.0003-0.30448-1.5307v-13.333c0-0.53043 0.10149-1.0407 0.30448-1.5307 0.20299-0.49006 0.49202-0.92262 0.86709-1.2977 0.37507-0.37507 0.80764-0.6641 1.2977-0.86709 0.49006-0.20299 1.0003-0.30448 1.5307-0.30448z" fill="#f00"/>
<path d="m4 0h18.667c0.53043 0 1.0407 0.10149 1.5307 0.30448 0.49006 0.20299 0.92262 0.49202 1.2977 0.86709 0.37507 0.37507 0.6641 0.80764 0.86709 1.2977 0.20299 0.49006 0.30448 1.0003 0.30448 1.5307v13.333c-2e-6 0.53043-0.1015 1.0407-0.30448 1.5307-0.20299 0.49006-0.49202 0.92262-0.86709 1.2977-0.37507 0.37507-0.80764 0.6641-1.2977 0.86709-0.49006 0.20299-1.0003 0.30448-1.5307 0.30448h-18.667c-0.53043-2e-6 -1.0407-0.1015-1.5307-0.30448-0.49006-0.20299-0.92262-0.49202-1.2977-0.86709-0.37507-0.37507-0.6641-0.80764-0.86709-1.2977-0.20299-0.49006-0.30448-1.0003-0.30448-1.5307v-13.333c0-0.53043 0.10149-1.0407 0.30448-1.5307 0.20299-0.49006 0.49202-0.92262 0.86709-1.2977 0.37507-0.37507 0.80764-0.6641 1.2977-0.86709 0.49006-0.20299 1.0003-0.30448 1.5307-0.30448z" fill="none" stroke="#4585a1" stroke-miterlimit="10"/>
</g>
<g transform="matrix(1.0008 0 0 .99925 512.18 145.38)">
<text transform="translate(0 14.484)" fill="#ffffff" font-family="Arimo" font-size="15.99px" font-weight="bold"><tspan x="0 6.2204895 15.110245" y="0">red</tspan></text>
</g>
<g transform="matrix(.94481 0 0 .94339 545.1 150.23)">
<path d="m12.71 2.44c0.003271 0.67238-0.2334 1.2457-0.71 1.72l-3.92 3.92c-0.22942 0.22747-0.49351 0.40271-0.79226 0.52571-0.29875 0.123-0.60966 0.1845-0.93274 0.1845-0.32308 0-0.63399-0.0615-0.93274-0.1845-0.29875-0.123-0.56284-0.29824-0.79226-0.52571l-3.91-3.92c-0.47935-0.47314-0.71935-1.0465-0.72-1.72 0.0019283-0.673 0.23859-1.2497 0.71-1.73 0.29-0.24 0.72-0.71 5.65-0.71 4.93 0 5.39 0.46 5.64 0.71 0.47591 0.47848 0.71258 1.0551 0.71 1.73z" fill="#231f20" fill-opacity=".1"/>
<path d="m6.36 7.79c-0.39071-0.00338-0.72405-0.14338-1-0.42l-3.94-3.92c-0.26924-0.27897-0.40385-0.6123-0.40385-1s0.13462-0.72103 0.40385-1c0.56-0.56 9.31-0.56 9.87 0 0.26924 0.27897 0.40385 0.6123 0.40385 1s-0.13462 0.72103-0.40385 1l-3.92 3.92c-0.27872 0.27936-0.61538 0.41936-1.01 0.42z" fill="#fff"/>
</g>
<g transform="matrix(1.0007 0 0 .9992 402.75 139.78)">
<path d="m4 0h46.688c0.53043 0 1.0407 0.10149 1.5307 0.30448 0.49006 0.20299 0.92262 0.49202 1.2977 0.86709 0.37507 0.37507 0.6641 0.80764 0.86708 1.2977 0.20299 0.49006 0.30448 1.0003 0.30449 1.5307v21.2c-4e-6 0.53043-0.1015 1.0407-0.30449 1.5307-0.20299 0.49006-0.49202 0.92262-0.86708 1.2977-0.37507 0.37507-0.80764 0.6641-1.2977 0.86709-0.49006 0.20299-1.0003 0.30448-1.5307 0.30449h-46.688c-0.53043-2e-6 -1.0407-0.1015-1.5307-0.30449-0.49006-0.20299-0.92262-0.49202-1.2977-0.86709-0.37507-0.37507-0.6641-0.80764-0.86709-1.2977-0.20299-0.49006-0.30448-1.0003-0.30448-1.5307v-21.2c0-0.53043 0.10149-1.0407 0.30448-1.5307 0.20299-0.49006 0.49202-0.92262 0.86709-1.2977 0.37507-0.37507 0.80764-0.6641 1.2977-0.86709 0.49006-0.20299 1.0003-0.30448 1.5307-0.30448z" fill="none" stroke="#197959" stroke-miterlimit="10"/>
</g>
<g transform="matrix(1.0008 0 0 .99925 402.75 139.78)">
<text transform="translate(7.9844 20.094)" fill="#ffffff" font-family="Arimo" font-size="15.99px" font-weight="bold"><tspan x="0 9.3346252" y="0">==</tspan></text>
</g>
<g transform="matrix(.94481 0 0 .94339 437.46 150.23)">
<path d="m12.71 2.44c0.003271 0.67238-0.2334 1.2457-0.71 1.72l-3.92 3.92c-0.22942 0.22747-0.49351 0.40271-0.79226 0.52571-0.29875 0.123-0.60966 0.1845-0.93274 0.1845-0.32308 0-0.63399-0.0615-0.93274-0.1845-0.29875-0.123-0.56284-0.29824-0.79226-0.52571l-3.91-3.92c-0.47935-0.47314-0.71935-1.0465-0.72-1.72 0.0019283-0.673 0.23859-1.2497 0.71-1.73 0.29-0.24 0.72-0.71 5.65-0.71 4.93 0 5.39 0.46 5.64 0.71 0.47591 0.47848 0.71258 1.0551 0.71 1.73z" fill="#231f20" fill-opacity=".1"/>
<path d="m6.36 7.79c-0.39071-0.00338-0.72405-0.14338-1-0.42l-3.94-3.92c-0.26924-0.27897-0.40385-0.6123-0.40385-1s0.13462-0.72103 0.40385-1c0.56-0.56 9.31-0.56 9.87 0 0.26924 0.27897 0.40385 0.6123 0.40385 1s-0.13462 0.72103-0.40385 1l-3.92 3.92c-0.27872 0.27936-0.61538 0.41936-1.01 0.42z" fill="#fff"/>
</g>
<g transform="matrix(1.0007 0 0 .9992 82.371 180.35)">
<path d="m0 4c0-0.53043 0.10149-1.0407 0.30448-1.5307 0.20299-0.49006 0.49202-0.92262 0.86709-1.2977 0.37507-0.37507 0.80764-0.6641 1.2977-0.86709 0.49006-0.20299 1.0003-0.30448 1.5307-0.30448h5c1.6667 0 2.5 0.75 3.3333 1.5l3.3333 3c0.83333 0.75 1.6667 1.5 3.3333 1.5h10c1.6667 0 2.5-0.75 3.3333-1.5l3.3333-3c0.83333-0.75 1.6667-1.5 3.3333-1.5h543.52c0.53039 0 1.0406 0.10149 1.5306 0.30448 0.49006 0.20299 0.92261 0.49202 1.2977 0.86709 0.37507 0.37507 0.66407 0.80764 0.86707 1.2977 0.203 0.49006 0.3045 1.0003 0.30457 1.5307v41.2c-7e-5 0.53043-0.10157 1.0407-0.30457 1.5307s-0.492 0.92262-0.86707 1.2977c-0.37512 0.37507-0.80767 0.6641-1.2977 0.86709-0.49005 0.20299-1.0002 0.30448-1.5306 0.30449h-543.52c-1.6667 0-2.5 0.75-3.3333 1.5l-3.3333 3c-0.83333 0.75-1.6667 1.5-3.3333 1.5h-10c-1.6667 0-2.5-0.75-3.3333-1.5l-3.3333-3c-0.83333-0.75-1.6667-1.5-3.3333-1.5h-5c-0.53043-4e-6 -1.0407-0.1015-1.5307-0.30449-0.49006-0.20299-0.92262-0.49202-1.2977-0.86709-0.37507-0.37507-0.6641-0.80764-0.86709-1.2977-0.20299-0.49006-0.30448-1.0003-0.30448-1.5307z" fill="#4c97ff"/>
<path d="m0 4c0-0.53043 0.10149-1.0407 0.30448-1.5307 0.20299-0.49006 0.49202-0.92262 0.86709-1.2977 0.37507-0.37507 0.80764-0.6641 1.2977-0.86709 0.49006-0.20299 1.0003-0.30448 1.5307-0.30448h5c1.6667 0 2.5 0.75 3.3333 1.5l3.3333 3c0.83333 0.75 1.6667 1.5 3.3333 1.5h10c1.6667 0 2.5-0.75 3.3333-1.5l3.3333-3c0.83333-0.75 1.6667-1.5 3.3333-1.5h543.52c0.53039 0 1.0406 0.10149 1.5306 0.30448 0.49006 0.20299 0.92261 0.49202 1.2977 0.86709 0.37507 0.37507 0.66407 0.80764 0.86707 1.2977 0.203 0.49006 0.3045 1.0003 0.30457 1.5307v41.2c-7e-5 0.53043-0.10157 1.0407-0.30457 1.5307s-0.492 0.92262-0.86707 1.2977c-0.37512 0.37507-0.80767 0.6641-1.2977 0.86709-0.49005 0.20299-1.0002 0.30448-1.5306 0.30449h-543.52c-1.6667 0-2.5 0.75-3.3333 1.5l-3.3333 3c-0.83333 0.75-1.6667 1.5-3.3333 1.5h-10c-1.6667 0-2.5-0.75-3.3333-1.5l-3.3333-3c-0.83333-0.75-1.6667-1.5-3.3333-1.5h-5c-0.53043-4e-6 -1.0407-0.1015-1.5307-0.30449-0.49006-0.20299-0.92262-0.49202-1.2977-0.86709-0.37507-0.37507-0.6641-0.80764-0.86709-1.2977-0.20299-0.49006-0.30448-1.0003-0.30448-1.5307z" fill="none" stroke="#3971bf" stroke-miterlimit="10"/>
</g>
<g transform="matrix(1.0007 0 0 .9992 137.41 188.95)">
<path d="m16 0h57.328c1.0506 0 2.091 0.10248 3.1214 0.30744 1.0304 0.20496 2.0309 0.50845 3.0015 0.91049 0.9706 0.40204 1.8927 0.89489 2.7662 1.4786 0.87352 0.58367 1.6817 1.2469 2.4246 1.9898 0.74287 0.74287 1.4061 1.5511 1.9898 2.4246 0.58366 0.87352 1.0765 1.7956 1.4786 2.7662 0.40203 0.97061 0.70553 1.9711 0.91049 3.0015 0.20496 1.0304 0.30744 2.0709 0.30745 3.1214-8e-6 1.0506-0.10249 2.0911-0.30745 3.1214-0.20496 1.0304-0.50846 2.0309-0.91049 3.0015-0.40204 0.9706-0.89489 1.8927-1.4786 2.7662-0.58367 0.87352-1.2469 1.6817-1.9898 2.4246-0.74287 0.74287-1.5511 1.4061-2.4246 1.9898-0.87353 0.58367-1.7956 1.0765-2.7662 1.4786-0.9706 0.40204-1.9711 0.70554-3.0015 0.91049-1.0304 0.20496-2.0709 0.30744-3.1214 0.30744h-57.328c-1.0506-2e-6 -2.0911-0.10248-3.1214-0.30744-1.0304-0.20496-2.0309-0.50846-3.0015-0.91049-0.9706-0.40204-1.8927-0.89489-2.7662-1.4786-0.87352-0.58367-1.6817-1.2469-2.4246-1.9898-0.74287-0.74287-1.4061-1.5511-1.9898-2.4246-0.58367-0.87352-1.0765-1.7956-1.4786-2.7662-0.40204-0.97061-0.70553-1.9711-0.91049-3.0015-0.20496-1.0304-0.30744-2.0709-0.30744-3.1214s0.10248-2.0911 0.30744-3.1214c0.20496-1.0304 0.50845-2.0309 0.91049-3.0015 0.40204-0.9706 0.89489-1.8927 1.4786-2.7662 0.58367-0.87352 1.2469-1.6817 1.9898-2.4246s1.5511-1.4061 2.4246-1.9898c0.87352-0.58367 1.7956-1.0765 2.7662-1.4786 0.97061-0.40204 1.9711-0.70554 3.0015-0.91049 1.0304-0.20496 2.0709-0.30744 3.1214-0.30744z" fill="#4180d9"/>
<path d="m16 0h57.328c1.0506 0 2.091 0.10248 3.1214 0.30744 1.0304 0.20496 2.0309 0.50845 3.0015 0.91049 0.9706 0.40204 1.8927 0.89489 2.7662 1.4786 0.87352 0.58367 1.6817 1.2469 2.4246 1.9898 0.74287 0.74287 1.4061 1.5511 1.9898 2.4246 0.58366 0.87352 1.0765 1.7956 1.4786 2.7662 0.40203 0.97061 0.70553 1.9711 0.91049 3.0015 0.20496 1.0304 0.30744 2.0709 0.30745 3.1214-8e-6 1.0506-0.10249 2.0911-0.30745 3.1214-0.20496 1.0304-0.50846 2.0309-0.91049 3.0015-0.40204 0.9706-0.89489 1.8927-1.4786 2.7662-0.58367 0.87352-1.2469 1.6817-1.9898 2.4246-0.74287 0.74287-1.5511 1.4061-2.4246 1.9898-0.87353 0.58367-1.7956 1.0765-2.7662 1.4786-0.9706 0.40204-1.9711 0.70554-3.0015 0.91049-1.0304 0.20496-2.0709 0.30744-3.1214 0.30744h-57.328c-1.0506-2e-6 -2.0911-0.10248-3.1214-0.30744-1.0304-0.20496-2.0309-0.50846-3.0015-0.91049-0.9706-0.40204-1.8927-0.89489-2.7662-1.4786-0.87352-0.58367-1.6817-1.2469-2.4246-1.9898-0.74287-0.74287-1.4061-1.5511-1.9898-2.4246-0.58367-0.87352-1.0765-1.7956-1.4786-2.7662-0.40204-0.97061-0.70553-1.9711-0.91049-3.0015-0.20496-1.0304-0.30744-2.0709-0.30744-3.1214s0.10248-2.0911 0.30744-3.1214c0.20496-1.0304 0.50845-2.0309 0.91049-3.0015 0.40204-0.9706 0.89489-1.8927 1.4786-2.7662 0.58367-0.87352 1.2469-1.6817 1.9898-2.4246s1.5511-1.4061 2.4246-1.9898c0.87352-0.58367 1.7956-1.0765 2.7662-1.4786 0.97061-0.40204 1.9711-0.70554 3.0015-0.91049 1.0304-0.20496 2.0709-0.30744 3.1214-0.30744z" fill="none" stroke="#3971bf" stroke-miterlimit="10"/>
</g>
<g transform="matrix(1.0008 0 0 .99925 149.42 195.94)">
<text transform="translate(0 14.484)" fill="#ffffff" font-family="Arimo" font-size="15.99px" font-weight="bold"><tspan x="0 14.212677 23.976578 29.2995 39.0634" y="0">motor</tspan></text>
</g>
<g transform="matrix(.94481 0 0 .94339 202.79 200.79)">
<path d="m12.71 2.44c0.003271 0.67238-0.2334 1.2457-0.71 1.72l-3.92 3.92c-0.22942 0.22747-0.49351 0.40271-0.79226 0.52571-0.29875 0.123-0.60966 0.1845-0.93274 0.1845-0.32308 0-0.63399-0.0615-0.93274-0.1845-0.29875-0.123-0.56284-0.29824-0.79226-0.52571l-3.91-3.92c-0.47935-0.47314-0.71935-1.0465-0.72-1.72 0.0019283-0.673 0.23859-1.2497 0.71-1.73 0.29-0.24 0.72-0.71 5.65-0.71 4.93 0 5.39 0.46 5.64 0.71 0.47591 0.47848 0.71258 1.0551 0.71 1.73z" fill="#231f20" fill-opacity=".1"/>
<path d="m6.36 7.79c-0.39071-0.00338-0.72405-0.14338-1-0.42l-3.94-3.92c-0.26924-0.27897-0.40385-0.6123-0.40385-1s0.13462-0.72103 0.40385-1c0.56-0.56 9.31-0.56 9.87 0 0.26924 0.27897 0.40385 0.6123 0.40385 1s-0.13462 0.72103-0.40385 1l-3.92 3.92c-0.27872 0.27936-0.61538 0.41936-1.01 0.42z" fill="#fff"/>
</g>
<g transform="matrix(1.0007 0 0 .9992 287.29 186.35)">
<path d="m18.6 0h57.238c1.2213 7.2795e-8 2.4308 0.11913 3.6287 0.35739 1.1978 0.23826 2.3609 0.59108 3.4892 1.0584 1.1283 0.46737 2.2002 1.0403 3.2157 1.7188 1.0155 0.67851 1.955 1.4496 2.8186 2.3131 0.86359 0.86358 1.6346 1.8031 2.3131 2.8186 0.6785 1.0155 1.2514 2.0874 1.7188 3.2157 0.46737 1.1283 0.82019 2.2914 1.0584 3.4892 0.23826 1.1978 0.35739 2.4074 0.3574 3.6287-8e-6 1.2213-0.11914 2.4309-0.3574 3.6287-0.23826 1.1978-0.59108 2.3609-1.0584 3.4892-0.46737 1.1283-1.0403 2.2002-1.7188 3.2157-0.6785 1.0155-1.4496 1.955-2.3131 2.8186-0.86359 0.86358-1.8031 1.6346-2.8186 2.3131-1.0155 0.67851-2.0874 1.2515-3.2157 1.7188-1.1283 0.46737-2.2914 0.82018-3.4892 1.0584-1.1978 0.23827-2.4074 0.3574-3.6287 0.3574h-57.238c-1.2213-4e-6 -2.4309-0.11914-3.6287-0.3574-1.1978-0.23826-2.3609-0.59108-3.4892-1.0584s-2.2002-1.0403-3.2157-1.7188c-1.0155-0.67852-1.955-1.4496-2.8186-2.3131-0.86358-0.86359-1.6346-1.8031-2.3131-2.8186-0.67851-1.0155-1.2515-2.0874-1.7188-3.2157-0.46737-1.1283-0.82018-2.2914-1.0584-3.4892-0.23826-1.1978-0.35739-2.4074-0.35739-3.6287 2.3874e-7 -1.2213 0.11913-2.4309 0.35739-3.6287 0.23826-1.1978 0.59108-2.3609 1.0584-3.4892 0.46737-1.1283 1.0403-2.2002 1.7188-3.2157 0.67851-1.0155 1.4496-1.955 2.3131-2.8186 0.86358-0.86358 1.8031-1.6346 2.8186-2.3131 1.0155-0.67851 2.0874-1.2515 3.2157-1.7188 1.1283-0.46737 2.2914-0.82018 3.4892-1.0584 1.1978-0.23826 2.4074-0.35739 3.6287-0.35739z" fill="#4180d9"/>
<path d="m18.6 0h57.238c1.2213 7.2795e-8 2.4308 0.11913 3.6287 0.35739 1.1978 0.23826 2.3609 0.59108 3.4892 1.0584 1.1283 0.46737 2.2002 1.0403 3.2157 1.7188 1.0155 0.67851 1.955 1.4496 2.8186 2.3131 0.86359 0.86358 1.6346 1.8031 2.3131 2.8186 0.6785 1.0155 1.2514 2.0874 1.7188 3.2157 0.46737 1.1283 0.82019 2.2914 1.0584 3.4892 0.23826 1.1978 0.35739 2.4074 0.3574 3.6287-8e-6 1.2213-0.11914 2.4309-0.3574 3.6287-0.23826 1.1978-0.59108 2.3609-1.0584 3.4892-0.46737 1.1283-1.0403 2.2002-1.7188 3.2157-0.6785 1.0155-1.4496 1.955-2.3131 2.8186-0.86359 0.86358-1.8031 1.6346-2.8186 2.3131-1.0155 0.67851-2.0874 1.2515-3.2157 1.7188-1.1283 0.46737-2.2914 0.82018-3.4892 1.0584-1.1978 0.23827-2.4074 0.3574-3.6287 0.3574h-57.238c-1.2213-4e-6 -2.4309-0.11914-3.6287-0.3574-1.1978-0.23826-2.3609-0.59108-3.4892-1.0584s-2.2002-1.0403-3.2157-1.7188c-1.0155-0.67852-1.955-1.4496-2.8186-2.3131-0.86358-0.86359-1.6346-1.8031-2.3131-2.8186-0.67851-1.0155-1.2515-2.0874-1.7188-3.2157-0.46737-1.1283-0.82018-2.2914-1.0584-3.4892-0.23826-1.1978-0.35739-2.4074-0.35739-3.6287 2.3874e-7 -1.2213 0.11913-2.4309 0.35739-3.6287 0.23826-1.1978 0.59108-2.3609 1.0584-3.4892 0.46737-1.1283 1.0403-2.2002 1.7188-3.2157 0.67851-1.0155 1.4496-1.955 2.3131-2.8186 0.86358-0.86358 1.8031-1.6346 2.8186-2.3131 1.0155-0.67851 2.0874-1.2515 3.2157-1.7188 1.1283-0.46737 2.2914-0.82018 3.4892-1.0584 1.1978-0.23826 2.4074-0.35739 3.6287-0.35739z" fill="none" stroke="#3971bf" stroke-miterlimit="10"/>
</g>
<g transform="matrix(1.0007 0 0 .9992 299.3 190.34)">
<path d="m4 0h34.695c0.53043 0 1.0407 0.10149 1.5307 0.30448 0.49006 0.20299 0.92262 0.49202 1.2977 0.86709 0.37507 0.37507 0.6641 0.80764 0.86709 1.2977 0.20299 0.49006 0.30449 1.0003 0.30449 1.5307v21.2c-4e-6 0.53043-0.1015 1.0407-0.30449 1.5307-0.20299 0.49006-0.49202 0.92262-0.86709 1.2977-0.37507 0.37507-0.80764 0.6641-1.2977 0.86709-0.49006 0.20299-1.0003 0.30448-1.5307 0.30449h-34.695c-0.53043-2e-6 -1.0407-0.1015-1.5307-0.30449-0.49006-0.20299-0.92262-0.49202-1.2977-0.86709-0.37507-0.37507-0.6641-0.80764-0.86709-1.2977-0.20299-0.49006-0.30448-1.0003-0.30448-1.5307v-21.2c0-0.53043 0.10149-1.0407 0.30448-1.5307 0.20299-0.49006 0.49202-0.92262 0.86709-1.2977 0.37507-0.37507 0.80764-0.6641 1.2977-0.86709 0.49006-0.20299 1.0003-0.30448 1.5307-0.30448z" fill="#fff"/>
<path d="m4 0h34.695c0.53043 0 1.0407 0.10149 1.5307 0.30448 0.49006 0.20299 0.92262 0.49202 1.2977 0.86709 0.37507 0.37507 0.6641 0.80764 0.86709 1.2977 0.20299 0.49006 0.30449 1.0003 0.30449 1.5307v21.2c-4e-6 0.53043-0.1015 1.0407-0.30449 1.5307-0.20299 0.49006-0.49202 0.92262-0.86709 1.2977-0.37507 0.37507-0.80764 0.6641-1.2977 0.86709-0.49006 0.20299-1.0003 0.30448-1.5307 0.30449h-34.695c-0.53043-2e-6 -1.0407-0.1015-1.5307-0.30449-0.49006-0.20299-0.92262-0.49202-1.2977-0.86709-0.37507-0.37507-0.6641-0.80764-0.86709-1.2977-0.20299-0.49006-0.30448-1.0003-0.30448-1.5307v-21.2c0-0.53043 0.10149-1.0407 0.30448-1.5307 0.20299-0.49006 0.49202-0.92262 0.86709-1.2977 0.37507-0.37507 0.80764-0.6641 1.2977-0.86709 0.49006-0.20299 1.0003-0.30448 1.5307-0.30448z" fill="none" stroke="#3971bf" stroke-miterlimit="10"/>
</g>
<g transform="matrix(1.0008 0 0 .99925 299.3 190.34)">
<text transform="translate(7.9844 20.094)" fill="#575e75" font-family="Arimo" font-size="15.99px" font-weight="bold"><tspan x="0 8.8897552 17.77951" y="0">500</tspan></text>
</g>
<g transform="matrix(1.0008 0 0 .99925 350.03 195.94)">
<text transform="translate(0 14.484)" fill="#ffffff" font-family="Arimo" font-size="15.99px" font-weight="bold"><tspan x="0 6.3921967 10.833176" y="0">/s</tspan></text>
</g>
<g transform="matrix(1.0007 0 0 .9992 452.52 186.35)">
<path d="m18.6 0h43.894c1.2213 7.2795e-8 2.4308 0.11913 3.6287 0.35739 1.1978 0.23826 2.3609 0.59108 3.4892 1.0584 1.1283 0.46737 2.2002 1.0403 3.2157 1.7188 1.0155 0.67851 1.955 1.4496 2.8186 2.3131 0.86359 0.86358 1.6346 1.8031 2.3131 2.8186 0.67851 1.0155 1.2515 2.0874 1.7188 3.2157 0.46737 1.1283 0.82018 2.2914 1.0584 3.4892 0.23826 1.1978 0.35739 2.4074 0.35739 3.6287 0 1.2213-0.11913 2.4309-0.35739 3.6287-0.23827 1.1978-0.59108 2.3609-1.0584 3.4892-0.46737 1.1283-1.0403 2.2002-1.7188 3.2157-0.67851 1.0155-1.4496 1.955-2.3131 2.8186-0.86359 0.86358-1.8031 1.6346-2.8186 2.3131-1.0155 0.67851-2.0874 1.2515-3.2157 1.7188s-2.2914 0.82018-3.4892 1.0584c-1.1978 0.23827-2.4074 0.3574-3.6287 0.3574h-43.894c-1.2213-4e-6 -2.4309-0.11914-3.6287-0.3574-1.1978-0.23826-2.3609-0.59108-3.4892-1.0584s-2.2002-1.0403-3.2157-1.7188c-1.0155-0.67852-1.955-1.4496-2.8186-2.3131-0.86358-0.86359-1.6346-1.8031-2.3131-2.8186-0.67851-1.0155-1.2515-2.0874-1.7188-3.2157-0.46737-1.1283-0.82018-2.2914-1.0584-3.4892-0.23826-1.1978-0.35739-2.4074-0.35739-3.6287 2.3874e-7 -1.2213 0.11913-2.4309 0.35739-3.6287 0.23826-1.1978 0.59108-2.3609 1.0584-3.4892 0.46737-1.1283 1.0403-2.2002 1.7188-3.2157 0.67851-1.0155 1.4496-1.955 2.3131-2.8186 0.86358-0.86358 1.8031-1.6346 2.8186-2.3131 1.0155-0.67851 2.0874-1.2515 3.2157-1.7188 1.1283-0.46737 2.2914-0.82018 3.4892-1.0584 1.1978-0.23826 2.4074-0.35739 3.6287-0.35739z" fill="#4180d9"/>
<path d="m18.6 0h43.894c1.2213 7.2795e-8 2.4308 0.11913 3.6287 0.35739 1.1978 0.23826 2.3609 0.59108 3.4892 1.0584 1.1283 0.46737 2.2002 1.0403 3.2157 1.7188 1.0155 0.67851 1.955 1.4496 2.8186 2.3131 0.86359 0.86358 1.6346 1.8031 2.3131 2.8186 0.67851 1.0155 1.2515 2.0874 1.7188 3.2157 0.46737 1.1283 0.82018 2.2914 1.0584 3.4892 0.23826 1.1978 0.35739 2.4074 0.35739 3.6287 0 1.2213-0.11913 2.4309-0.35739 3.6287-0.23827 1.1978-0.59108 2.3609-1.0584 3.4892-0.46737 1.1283-1.0403 2.2002-1.7188 3.2157-0.67851 1.0155-1.4496 1.955-2.3131 2.8186-0.86359 0.86358-1.8031 1.6346-2.8186 2.3131-1.0155 0.67851-2.0874 1.2515-3.2157 1.7188s-2.2914 0.82018-3.4892 1.0584c-1.1978 0.23827-2.4074 0.3574-3.6287 0.3574h-43.894c-1.2213-4e-6 -2.4309-0.11914-3.6287-0.3574-1.1978-0.23826-2.3609-0.59108-3.4892-1.0584s-2.2002-1.0403-3.2157-1.7188c-1.0155-0.67852-1.955-1.4496-2.8186-2.3131-0.86358-0.86359-1.6346-1.8031-2.3131-2.8186-0.67851-1.0155-1.2515-2.0874-1.7188-3.2157-0.46737-1.1283-0.82018-2.2914-1.0584-3.4892-0.23826-1.1978-0.35739-2.4074-0.35739-3.6287 2.3874e-7 -1.2213 0.11913-2.4309 0.35739-3.6287 0.23826-1.1978 0.59108-2.3609 1.0584-3.4892 0.46737-1.1283 1.0403-2.2002 1.7188-3.2157 0.67851-1.0155 1.4496-1.955 2.3131-2.8186 0.86358-0.86358 1.8031-1.6346 2.8186-2.3131 1.0155-0.67851 2.0874-1.2515 3.2157-1.7188 1.1283-0.46737 2.2914-0.82018 3.4892-1.0584 1.1978-0.23826 2.4074-0.35739 3.6287-0.35739z" fill="none" stroke="#3971bf" stroke-miterlimit="10"/>
</g>
<g transform="matrix(1.0007 0 0 .9992 464.53 190.34)">
<path d="m4 0h34.695c0.53043 0 1.0407 0.10149 1.5307 0.30448 0.49006 0.20299 0.92262 0.49202 1.2977 0.86709 0.37507 0.37507 0.6641 0.80764 0.86709 1.2977 0.20299 0.49006 0.30449 1.0003 0.30449 1.5307v21.2c-4e-6 0.53043-0.1015 1.0407-0.30449 1.5307-0.20299 0.49006-0.49202 0.92262-0.86709 1.2977-0.37507 0.37507-0.80764 0.6641-1.2977 0.86709-0.49006 0.20299-1.0003 0.30448-1.5307 0.30449h-34.695c-0.53043-2e-6 -1.0407-0.1015-1.5307-0.30449-0.49006-0.20299-0.92262-0.49202-1.2977-0.86709-0.37507-0.37507-0.6641-0.80764-0.86709-1.2977-0.20299-0.49006-0.30448-1.0003-0.30448-1.5307v-21.2c0-0.53043 0.10149-1.0407 0.30448-1.5307 0.20299-0.49006 0.49202-0.92262 0.86709-1.2977 0.37507-0.37507 0.80764-0.6641 1.2977-0.86709 0.49006-0.20299 1.0003-0.30448 1.5307-0.30448z" fill="#fff"/>
<path d="m4 0h34.695c0.53043 0 1.0407 0.10149 1.5307 0.30448 0.49006 0.20299 0.92262 0.49202 1.2977 0.86709 0.37507 0.37507 0.6641 0.80764 0.86709 1.2977 0.20299 0.49006 0.30449 1.0003 0.30449 1.5307v21.2c-4e-6 0.53043-0.1015 1.0407-0.30449 1.5307-0.20299 0.49006-0.49202 0.92262-0.86709 1.2977-0.37507 0.37507-0.80764 0.6641-1.2977 0.86709-0.49006 0.20299-1.0003 0.30448-1.5307 0.30449h-34.695c-0.53043-2e-6 -1.0407-0.1015-1.5307-0.30449-0.49006-0.20299-0.92262-0.49202-1.2977-0.86709-0.37507-0.37507-0.6641-0.80764-0.86709-1.2977-0.20299-0.49006-0.30448-1.0003-0.30448-1.5307v-21.2c0-0.53043 0.10149-1.0407 0.30448-1.5307 0.20299-0.49006 0.49202-0.92262 0.86709-1.2977 0.37507-0.37507 0.80764-0.6641 1.2977-0.86709 0.49006-0.20299 1.0003-0.30448 1.5307-0.30448z" fill="none" stroke="#3971bf" stroke-miterlimit="10"/>
</g>
<g transform="matrix(1.0008 0 0 .99925 464.53 190.34)">
<text transform="translate(7.9844 20.094)" fill="#575e75" font-family="Arimo" font-size="15.99px" font-weight="bold"><tspan x="0 8.8897552 17.77951" y="0">360</tspan></text>
</g>
<g transform="matrix(1.0008 0 0 .99925 515.26 195.94)">
<text transform="translate(0 14.484)" fill="#ffffff" font-family="Arimo" font-size="15.99px" font-weight="bold"><tspan x="0" y="0"></tspan></text>
</g>
<g transform="matrix(1.0007 0 0 .9992 583.48 188.95)">
<path d="m16 0h45.766c1.0506 0 2.0911 0.10248 3.1214 0.30744 1.0304 0.20496 2.0309 0.50845 3.0015 0.91049 0.9706 0.40204 1.8927 0.89489 2.7662 1.4786 0.87353 0.58367 1.6817 1.2469 2.4246 1.9898 0.74287 0.74287 1.4061 1.5511 1.9898 2.4246 0.58366 0.87352 1.0765 1.7956 1.4786 2.7662 0.40204 0.97061 0.70554 1.9711 0.9105 3.0015 0.20496 1.0304 0.30744 2.0709 0.30744 3.1214 0 1.0506-0.10248 2.0911-0.30744 3.1214-0.20496 1.0304-0.50846 2.0309-0.9105 3.0015-0.40204 0.9706-0.89489 1.8927-1.4786 2.7662-0.58367 0.87352-1.2469 1.6817-1.9898 2.4246-0.74287 0.74287-1.5511 1.4061-2.4246 1.9898-0.87353 0.58367-1.7956 1.0765-2.7662 1.4786-0.9706 0.40204-1.9711 0.70554-3.0015 0.91049-1.0304 0.20496-2.0709 0.30744-3.1214 0.30744h-45.766c-1.0506-2e-6 -2.0911-0.10248-3.1214-0.30744-1.0304-0.20496-2.0309-0.50846-3.0015-0.91049-0.9706-0.40204-1.8927-0.89489-2.7662-1.4786-0.87352-0.58367-1.6817-1.2469-2.4246-1.9898-0.74287-0.74287-1.4061-1.5511-1.9898-2.4246-0.58367-0.87352-1.0765-1.7956-1.4786-2.7662-0.40204-0.97061-0.70553-1.9711-0.91049-3.0015-0.20496-1.0304-0.30744-2.0709-0.30744-3.1214s0.10248-2.0911 0.30744-3.1214c0.20496-1.0304 0.50845-2.0309 0.91049-3.0015 0.40204-0.9706 0.89489-1.8927 1.4786-2.7662 0.58367-0.87352 1.2469-1.6817 1.9898-2.4246s1.5511-1.4061 2.4246-1.9898c0.87352-0.58367 1.7956-1.0765 2.7662-1.4786 0.97061-0.40204 1.9711-0.70554 3.0015-0.91049 1.0304-0.20496 2.0709-0.30744 3.1214-0.30744z" fill="#4180d9"/>
<path d="m16 0h45.766c1.0506 0 2.0911 0.10248 3.1214 0.30744 1.0304 0.20496 2.0309 0.50845 3.0015 0.91049 0.9706 0.40204 1.8927 0.89489 2.7662 1.4786 0.87353 0.58367 1.6817 1.2469 2.4246 1.9898 0.74287 0.74287 1.4061 1.5511 1.9898 2.4246 0.58366 0.87352 1.0765 1.7956 1.4786 2.7662 0.40204 0.97061 0.70554 1.9711 0.9105 3.0015 0.20496 1.0304 0.30744 2.0709 0.30744 3.1214 0 1.0506-0.10248 2.0911-0.30744 3.1214-0.20496 1.0304-0.50846 2.0309-0.9105 3.0015-0.40204 0.9706-0.89489 1.8927-1.4786 2.7662-0.58367 0.87352-1.2469 1.6817-1.9898 2.4246-0.74287 0.74287-1.5511 1.4061-2.4246 1.9898-0.87353 0.58367-1.7956 1.0765-2.7662 1.4786-0.9706 0.40204-1.9711 0.70554-3.0015 0.91049-1.0304 0.20496-2.0709 0.30744-3.1214 0.30744h-45.766c-1.0506-2e-6 -2.0911-0.10248-3.1214-0.30744-1.0304-0.20496-2.0309-0.50846-3.0015-0.91049-0.9706-0.40204-1.8927-0.89489-2.7662-1.4786-0.87352-0.58367-1.6817-1.2469-2.4246-1.9898-0.74287-0.74287-1.4061-1.5511-1.9898-2.4246-0.58367-0.87352-1.0765-1.7956-1.4786-2.7662-0.40204-0.97061-0.70553-1.9711-0.91049-3.0015-0.20496-1.0304-0.30744-2.0709-0.30744-3.1214s0.10248-2.0911 0.30744-3.1214c0.20496-1.0304 0.50845-2.0309 0.91049-3.0015 0.40204-0.9706 0.89489-1.8927 1.4786-2.7662 0.58367-0.87352 1.2469-1.6817 1.9898-2.4246s1.5511-1.4061 2.4246-1.9898c0.87352-0.58367 1.7956-1.0765 2.7662-1.4786 0.97061-0.40204 1.9711-0.70554 3.0015-0.91049 1.0304-0.20496 2.0709-0.30744 3.1214-0.30744z" fill="none" stroke="#3971bf" stroke-miterlimit="10"/>
</g>
<g transform="matrix(1.0008 0 0 .99925 595.49 195.94)">
<text transform="translate(0 14.484)" fill="#ffffff" font-family="Arimo" font-size="15.99px" font-weight="bold"><tspan x="0 9.7639008 19.527802 23.968781" y="0">hold</tspan></text>
</g>
<g transform="matrix(.94481 0 0 .94339 637.28 200.79)">
<path d="m12.71 2.44c0.003271 0.67238-0.2334 1.2457-0.71 1.72l-3.92 3.92c-0.22942 0.22747-0.49351 0.40271-0.79226 0.52571-0.29875 0.123-0.60966 0.1845-0.93274 0.1845-0.32308 0-0.63399-0.0615-0.93274-0.1845-0.29875-0.123-0.56284-0.29824-0.79226-0.52571l-3.91-3.92c-0.47935-0.47314-0.71935-1.0465-0.72-1.72 0.0019283-0.673 0.23859-1.2497 0.71-1.73 0.29-0.24 0.72-0.71 5.65-0.71 4.93 0 5.39 0.46 5.64 0.71 0.47591 0.47848 0.71258 1.0551 0.71 1.73z" fill="#231f20" fill-opacity=".1"/>
<path d="m6.36 7.79c-0.39071-0.00338-0.72405-0.14338-1-0.42l-3.94-3.92c-0.26924-0.27897-0.40385-0.6123-0.40385-1s0.13462-0.72103 0.40385-1c0.56-0.56 9.31-0.56 9.87 0 0.26924 0.27897 0.40385 0.6123 0.40385 1s-0.13462 0.72103-0.40385 1l-3.92 3.92c-0.27872 0.27936-0.61538 0.41936-1.01 0.42z" fill="#fff"/>
</g>
<g transform="matrix(1.0007 0 0 .9992 93.379 194.44)">
<path d="m24.681 15.504-2.243-1.2399c0.2264-1.1694 0.2264-2.3689 0-3.5383l2.243-1.2399c0.25799-0.14113 0.37382-0.43347 0.28958-0.70564-0.58443-1.7943-1.5795-3.4173-2.88-4.7681-0.20008-0.20665-0.52652-0.25706-0.77924-0.11593l-2.243 1.2399c-0.94246-0.77621-2.0271-1.376-3.2012-1.7691v-2.4748c0-0.28226-0.20534-0.52923-0.49492-0.58972-1.9323-0.4133-3.912-0.39314-5.7495 0-0.28958 0.060484-0.49492 0.30746-0.49492 0.58972v2.4798c-1.1689 0.39818-2.2535 0.99798-3.2012 1.7691l-2.2377-1.2399c-0.25799-0.14113-0.57917-0.095766-0.77924 0.11593-1.3005 1.3458-2.2956 2.9687-2.88 4.7681-0.089507 0.27218 0.031591 0.56451 0.28958 0.70564l2.243 1.2399c-0.2264 1.1694-0.2264 2.3689 0 3.5383l-2.243 1.2399c-0.25799 0.14113-0.37383 0.43347-0.28958 0.70564 0.58443 1.7943 1.5795 3.4173 2.88 4.7681 0.20008 0.20665 0.52651 0.25706 0.77924 0.11593l2.243-1.2399c0.94246 0.77621 2.0271 1.376 3.2012 1.7691v2.4798c0 0.28226 0.20534 0.52923 0.49492 0.58972 1.9323 0.4133 3.912 0.39314 5.7495 0 0.28958-0.06048 0.49492-0.30746 0.49492-0.58972v-2.4798c1.1689-0.39818 2.2535-0.99798 3.2012-1.7691l2.243 1.2399c0.25799 0.14113 0.57916 0.09577 0.77924-0.11593 1.3005-1.3458 2.2956-2.9687 2.88-4.7681 0.07898-0.27722-0.03686-0.56956-0.29485-0.71068zm-12.184 1.0232c-2.3219 0-4.2121-1.8095-4.2121-4.0322s1.8902-4.0322 4.2121-4.0322c2.3219 0 4.2121 1.8095 4.2121 4.0322s-1.8902 4.0322-4.2121 4.0322z" fill="#fff"/>
</g>
<g transform="matrix(1.0007 0 0 .9992 126.4 189.45)">
<path d="m2.5 0.5v29" fill="none" stroke="#000" stroke-miterlimit="10" stroke-opacity=".2625"/>
</g>
<g transform="matrix(1.0008 0 0 .99925 234.81 195.94)">
<text transform="translate(0 14.484)" fill="#ffffff" font-family="Arimo" font-size="15.99px" font-weight="bold"><tspan x="0 6.2204895 15.98439 25.748291 30.18927 39.079025" y="0">run at</tspan></text>
</g>
<g transform="matrix(1.0007 0 0 .9992 389.8 190.34)">
<path d="m4 0h46.672c0.53043 0 1.0407 0.10149 1.5307 0.30448 0.49005 0.20299 0.92262 0.49202 1.2977 0.86709 0.37507 0.37507 0.6641 0.80764 0.86709 1.2977 0.20299 0.49006 0.30448 1.0003 0.30449 1.5307v21.2c-4e-6 0.53043-0.1015 1.0407-0.30449 1.5307-0.20299 0.49006-0.49202 0.92262-0.86709 1.2977-0.37508 0.37507-0.80764 0.6641-1.2977 0.86709-0.49006 0.20299-1.0003 0.30448-1.5307 0.30449h-46.672c-0.53043-2e-6 -1.0407-0.1015-1.5307-0.30449-0.49006-0.20299-0.92262-0.49202-1.2977-0.86709-0.37507-0.37507-0.6641-0.80764-0.86709-1.2977-0.20299-0.49006-0.30448-1.0003-0.30448-1.5307v-21.2c0-0.53043 0.10149-1.0407 0.30448-1.5307 0.20299-0.49006 0.49202-0.92262 0.86709-1.2977 0.37507-0.37507 0.80764-0.6641 1.2977-0.86709 0.49006-0.20299 1.0003-0.30448 1.5307-0.30448z" fill="none" stroke="#3971bf" stroke-miterlimit="10"/>
</g>
<g transform="matrix(1.0008 0 0 .99925 389.8 190.34)">
<text transform="translate(7.9844 20.094)" fill="#ffffff" font-family="Arimo" font-size="15.99px" font-weight="bold"><tspan x="0 9.7639008" y="0">by</tspan></text>
</g>
<g transform="matrix(.94481 0 0 .94339 424.5 200.79)">
<path d="m12.71 2.44c0.003271 0.67238-0.2334 1.2457-0.71 1.72l-3.92 3.92c-0.22942 0.22747-0.49351 0.40271-0.79226 0.52571-0.29875 0.123-0.60966 0.1845-0.93274 0.1845-0.32308 0-0.63399-0.0615-0.93274-0.1845-0.29875-0.123-0.56284-0.29824-0.79226-0.52571l-3.91-3.92c-0.47935-0.47314-0.71935-1.0465-0.72-1.72 0.0019283-0.673 0.23859-1.2497 0.71-1.73 0.29-0.24 0.72-0.71 5.65-0.71 4.93 0 5.39 0.46 5.64 0.71 0.47591 0.47848 0.71258 1.0551 0.71 1.73z" fill="#231f20" fill-opacity=".1"/>
<path d="m6.36 7.79c-0.39071-0.00338-0.72405-0.14338-1-0.42l-3.94-3.92c-0.26924-0.27897-0.40385-0.6123-0.40385-1s0.13462-0.72103 0.40385-1c0.56-0.56 9.31-0.56 9.87 0 0.26924 0.27897 0.40385 0.6123 0.40385 1s-0.13462 0.72103-0.40385 1l-3.92 3.92c-0.27872 0.27936-0.61538 0.41936-1.01 0.42z" fill="#fff"/>
</g>
<g transform="matrix(1.0008 0 0 .99925 541.68 195.94)">
<text transform="translate(0 14.484)" fill="#ffffff" font-family="Arimo" font-size="15.99px" font-weight="bold"><tspan x="0 5.3229218 15.086823 23.976578" y="0">then</tspan></text>
</g>
<g transform="matrix(1.0008 0 0 .99925 68.361 145.38)">
<text transform="translate(0 14.484)" fill="#ffffff" font-family="Arimo" font-size="15.99px" font-weight="bold"><tspan x="0 4.440979" y="0">if</tspan></text>
</g>
<g transform="matrix(1.0007 0 0 .9992 68.361 227.02)">
<path d="m2 10.629 7 9.0286 7-9.0286" fill="none" stroke="#fff" stroke-miterlimit="10"/>
</g>
<g transform="matrix(1.0008 0 0 .99925 46.346 97.419)">
<text transform="translate(0 14.484)" fill="#ffffff" font-family="Arimo" font-size="15.99px" font-weight="bold"><tspan x="0 6.2204895 15.110245 24.874146 33.763901 42.653656" y="0">repeat</tspan></text>
</g>
<g transform="matrix(1.0008 0 0 .99925 152.24 97.419)">
<text transform="translate(0 14.484)" fill="#ffffff" font-family="Arimo" font-size="15.99px" font-weight="bold"><tspan x="0 5.3229218 9.7639008 23.976578 32.866333" y="0">times</tspan></text>
</g>
<g transform="matrix(1.2462 0 0 1.2443 43.74 44.059)">
<path d="m24.501 16.383-17.386 10.038v-20.075z" fill="#fff"/>
</g>
<g transform="matrix(1.0007 0 0 .9992 82.371 46.959)">
<path d="m2.5 0.5v29" fill="none" stroke="#000" stroke-miterlimit="10" stroke-opacity=".2625"/>
</g>
<g transform="matrix(1.0008 0 0 .99925 93.379 53.454)">
<text transform="translate(0 14.484)" fill="#ffffff" font-family="Arimo" font-size="15.99px" font-weight="bold"><tspan x="0 9.7639008 15.98439 25.748291 35.512192 41.732681 50.622437" y="0">program</tspan></text>
</g>
</g>
</svg>
