<svg width="50" height="50" enable-background="new 0 0 20 20" version="1.1" viewBox="0 0 50 50" xmlns="http://www.w3.org/2000/svg"><g id="cog_2_" transform="matrix(2.25,0,0,2.25,2.5,2.5)" fill="#fff"><g fill="#fff"><path d="m19 8h-2.31c-0.14-0.46-0.33-0.89-0.56-1.3l1.7-1.7c0.39-0.39 0.39-1.02 0-1.41l-1.41-1.41c-0.39-0.39-1.02-0.39-1.41 0l-1.7 1.7c-0.41-0.22-0.84-0.41-1.3-0.55v-2.33c0-0.55-0.45-1-1-1h-2.01c-0.55 0-1 0.45-1 1v2.33c-0.48 0.14-0.94 0.34-1.37 0.58l-1.63-1.63c-0.37-0.37-0.98-0.37-1.36 0l-1.36 1.36c-0.37 0.38-0.37 0.99 0 1.36l1.62 1.62c-0.24 0.44-0.44 0.89-0.59 1.38h-2.31c-0.55 0-1 0.45-1 1v2c0 0.55 0.45 1 1 1h2.31c0.14 0.46 0.33 0.89 0.56 1.3l-1.7 1.7c-0.39 0.39-0.39 1.02 0 1.41l1.41 1.41c0.39 0.39 1.02 0.39 1.41 0l1.7-1.7c0.41 0.22 0.84 0.41 1.3 0.55v2.33c0 0.55 0.45 1 1 1h2c0.55 0 1-0.45 1-1v-2.33c0.48-0.14 0.94-0.35 1.37-0.59l1.64 1.64c0.37 0.37 0.98 0.37 1.36 0l1.36-1.36c0.37-0.37 0.37-0.98 0-1.36l-1.62-1.62c0.24-0.43 0.45-0.89 0.6-1.38h2.3c0.55 0 1-0.45 1-1v-2c0-0.55-0.45-1-1-1zm-9 6c-2.21 0-4-1.79-4-4s1.79-4 4-4 4 1.79 4 4-1.79 4-4 4z" clip-rule="evenodd" fill="#fff" fill-rule="evenodd"/></g></g></svg>
