<?xml version="1.0" encoding="UTF-8"?>
<svg width="50" height="50" version="1.1" viewBox="0 0 26.458 26.458" xmlns="http://www.w3.org/2000/svg">
 <path d="m12.061 3.175c-0.52433 0-0.94647 0.42215-0.94647 0.94649v2.1893a7.1944 7.1946 0 0 0-1.3064 0.50605l-1.5234-1.5234c-0.37076-0.37076-0.96782-0.37076-1.3386 0l-1.6522 1.6526c-0.37076 0.37076-0.37076 0.96784 0 1.3386l1.4626 1.4626a7.1944 7.1946 0 0 0-0.58294 1.3672h-2.052c-0.52433 0-0.94647 0.42175-0.94647 0.94608v2.337c0 0.52434 0.42214 0.94649 0.94647 0.94649h2.0503a7.1944 7.1946 0 0 0 0.58253 1.3688l-1.4606 1.461c-0.37076 0.37076-0.37076 0.96785 0 1.3386l1.6522 1.6522c0.37076 0.37076 0.96782 0.37076 1.3386 0l1.5197-1.5198a7.1944 7.1946 0 0 0 1.31 0.50767v2.184c0 0.52434 0.42214 0.94649 0.94647 0.94648h2.3366c0.52433 0 0.94647-0.42214 0.94647-0.94648v-2.2919a7.1944 7.1946 0 0 0 1.1848-0.52498l1.6449 1.645c0.37076 0.37076 0.96782 0.37076 1.3386 0l1.6522-1.6522c0.37076-0.37076 0.37076-0.96784 0-1.3386l-1.7057-1.7058a7.1944 7.1946 0 0 0 0.45733-1.124h2.4207c0.52433 0 0.94647-0.42215 0.94647-0.94649v-2.337c0-0.52433-0.42214-0.94608-0.94647-0.94608h-2.4179a7.1944 7.1946 0 0 0-0.45492-1.1293l1.7005-1.7005c0.37076-0.37076 0.37076-0.96784 0-1.3386l-1.6522-1.6526c-0.37076-0.37076-0.96782-0.37076-1.3386 0l-1.6445 1.6446a7.1944 7.1946 0 0 0-1.1852-0.52296v-2.2935c0-0.52434-0.42214-0.94649-0.94647-0.94649zm1.1683 5.8279a4.226 4.226 0 0 1 4.2259 4.226 4.226 4.226 0 0 1-4.2259 4.2264 4.226 4.226 0 0 1-4.2259-4.2264 4.226 4.226 0 0 1 4.2259-4.226z" fill="#fff" stop-color="#000000" stroke-linecap="square" stroke-width="5.9999"/>
</svg>
