<svg width="50" height="50" viewBox="0 0 48 48" xmlns="http://www.w3.org/2000/svg"><g id="Icon/48/EmptyHub" stroke-width="1" fill="none"><path d="M27 37c0 1.659-1.342 3-3 3s-3-1.341-3-3 1.342-3 3-3 3 1.349 3 3" id="Path" stroke="#fff"/><path d="M33.1 44H14.9c-2.15 0-3.9-1.717-3.9-3.75V7.75C11 5.716 12.75 4 14.9 4h18.2C35.249 4 37 5.716 37 7.75v32.5c0 2.033-1.751 3.75-3.9 3.75z" id="Path" stroke="#fff" stroke-width="3"/><path d="M33.398 9.049c0 .83-.667 1.5-1.49 1.5-.824 0-1.49-.67-1.49-1.5 0-.829.666-1.5 1.49-1.5.823 0 1.49.674 1.49 1.5" id="Path" fill="#fff"/>
<path fill="#fff" transform="translate(14.2 10.2) scale(0.5)" d="M16.421 14.368h6.158v-6.158h-6.158v6.158z M16.421 22.579h6.158v-6.158h-6.158v6.158z M16.421 30.79h6.158v-6.158h-6.158v6.158z M8.21 14.368h6.158v-6.158H8.21v6.158z M8.21 22.579h6.158v-6.158H8.21v6.158z M8.21 30.79h6.158v-6.158H8.21v6.158z M24.632 14.368h6.157V8.21h-6.157v6.158z M24.632 22.579h6.157v-6.158h-6.157v6.158z M24.632 30.79h6.157v-6.158h-6.157v6.157z"/></g></svg>