<?xml version="1.0" encoding="UTF-8"?>
<svg width="50" height="50" version="1.1" viewBox="0 0 26.458 26.458" xmlns="http://www.w3.org/2000/svg">
 <g transform="matrix(1.184 0 0 1.184 -3.3132 -4.835)" fill="#fff" stroke-linecap="round" stroke-linejoin="round" stroke-width="18.956">
  <path transform="matrix(.41761 0 0 .41761 3.5309 5.5477)" d="m11.537 18.957v13.256c0 4.7179 3.7978 8.5156 8.5156 8.5156h1.4746v3.5234h1.6172v5.75h3.7109v-5.75h1.6172v-3.5234h1.4746c4.7179 0 8.5156-3.7978 8.5156-8.5156v-13.256h-26.926zm17.178 2.6758h3.0625v4.7695h3.7305l-5.2637 9.1152-5.2637-9.1152h3.7344zm-8.959 0.0039 5.2637 9.1152h-3.7344v4.7676h-3.0625v-4.7676h-3.7305z" stroke-width="31.472"/>
 </g>
 <path d="m9.2031 2.6458c-0.69882 0-1.2608 0.56326-1.2608 1.2621v6.5723h10.573v-6.5723c0-0.69882-0.56194-1.2621-1.2608-1.2621h-8.0515zm0.66856 2.4636h1.374c0.25035 0 0.45273 0.20238 0.45273 0.45273v1.374c0 0.25035-0.20238 0.4514-0.45273 0.4514h-1.374c-0.25035 0-0.4514-0.20106-0.4514-0.4514v-1.374c0-0.25035 0.20106-0.45273 0.4514-0.45273zm5.3405 0h1.374c0.25035 0 0.4514 0.20238 0.4514 0.45273v1.374c0 0.25035-0.20106 0.4514-0.4514 0.4514h-1.374c-0.25035 0-0.45272-0.20106-0.45272-0.4514v-1.374c0-0.25035 0.20238-0.45273 0.45272-0.45273z" fill="#fff" stop-color="#000000" stroke-linecap="round" stroke-linejoin="round" stroke-width="24.019"/>
</svg>
