<?xml version="1.0" encoding="UTF-8"?>
<svg width="50" height="50" version="1.1" viewBox="0 0 26.458 26.458" xmlns="http://www.w3.org/2000/svg">
 <g transform="matrix(.93446 0 0 .93446 .8674 1.7338)" fill="#fff" stroke-linecap="round" stroke-linejoin="round">
  <g transform="matrix(1.2671,0,0,1.2671,-4.4741,-7.0296)" stroke-width="18.956">
   <path transform="matrix(.41761 0 0 .41761 3.5309 5.5477)" d="m11.537 18.957v13.256c0 4.7179 3.7978 8.5156 8.5156 8.5156h1.4746v3.5234h1.6172v5.75h3.7109v-5.75h1.6172v-3.5234h1.4746c4.7179 0 8.5156-3.7978 8.5156-8.5156v-13.256h-26.926z" stroke-width="31.472"/>
  </g>
  <path d="m8.9209 0.97595c-0.74784 0-1.3492 0.60277-1.3492 1.3506v7.0334h11.315v-7.0334c0-0.74784-0.60136-1.3506-1.3492-1.3506h-8.6163zm0.71546 2.6364h1.4704c0.26791 0 0.48449 0.21658 0.48449 0.48449v1.4704c0 0.26791-0.21658 0.48307-0.48449 0.48307h-1.4704c-0.26791 0-0.48307-0.21517-0.48307-0.48307v-1.4704c0-0.26791 0.21517-0.48449 0.48307-0.48449zm5.7152 0h1.4704c0.26791 0 0.48307 0.21658 0.48307 0.48449v1.4704c0 0.26791-0.21517 0.48307-0.48307 0.48307h-1.4704c-0.26791 0-0.48448-0.21517-0.48448-0.48307v-1.4704c0-0.26791 0.21658-0.48449 0.48448-0.48449z" stop-color="#000000" stroke-width="24.019"/>
 </g>
</svg>
