<svg xmlns="http://www.w3.org/2000/svg" viewBox="0 0 48 48"><g stroke-width="1" fill-rule="evenodd"><path d="M38 5.5c2.481 0 4.5 2.019 4.5 4.5v28c0 2.481-2.019 4.5-4.5 4.5H10A4.505 4.505 0 015.5 38V10c0-2.481 2.019-4.5 4.5-4.5h28" fill="none"/><path d="M34 24c0 5.522-4.477 10-10 10s-10-4.478-10-10 4.477-10 10-10 10 4.478 10 10zm4-20a6 6 0 016 6v28a6 6 0 01-6 6H10a6 6 0 01-6-6V10a6 6 0 016-6h28zm0 1.5H10A4.505 4.505 0 005.5 10v28c0 2.481 2.019 4.5 4.5 4.5h28c2.481 0 4.5-2.019 4.5-4.5V10c0-2.481-2.019-4.5-4.5-4.5zM24 9c8.271 0 15 6.729 15 15s-6.729 15-15 15S9 32.271 9 24 15.729 9 24 9zm0 2c-7.18 0-13 5.82-13 13s5.82 13 13 13 13-5.82 13-13-5.82-13-13-13z" id="Combined-Shape" fill="#fff"/></g></svg>