<svg xmlns="http://www.w3.org/2000/svg" viewBox="0 0 48 48" id="dsmIcon"><g id="Icon/48/force" stroke-width="1" fill-rule="evenodd"><path d="M38 5.5c2.481 0 4.5 2.019 4.5 4.5v28c0 2.481-2.019 4.5-4.5 4.5H10A4.505 4.505 0 015.5 38V10c0-2.481 2.019-4.5 4.5-4.5h28" id="Bg" fill="#FFF"/><path d="M38 4a6 6 0 016 6v28a6 6 0 01-6 6H10a6 6 0 01-6-6V10a6 6 0 016-6h28zm0 1.5H10A4.505 4.505 0 005.5 10v28c0 2.481 2.019 4.5 4.5 4.5h28c2.481 0 4.5-2.019 4.5-4.5V10c0-2.481-2.019-4.5-4.5-4.5zM15.628 29H12a4 4 0 01-4-4v-2a4 4 0 014-4h3.628a9.705 9.705 0 00-1.378 5c0 1.828.503 3.538 1.378 5zm16.744-10H36a4 4 0 014 4v2a4 4 0 01-4 4h-3.628a9.705 9.705 0 001.378-5 9.705 9.705 0 00-1.378-5zm-.122 5A8.25 8.25 0 0124 32.25 8.25 8.25 0 0115.75 24 8.25 8.25 0 0124 15.75 8.25 8.25 0 0132.25 24zm-9.25.97V27a1 1 0 002 0v-2.03h2.016a1 1 0 000-2H25V21a1 1 0 00-2 0v1.97h-2.015a1 1 0 000 2H23z" id="Combined-Shape" fill="#C8A300"/></g></svg>