<svg viewBox="10 3 28 42" xmlns="http://www.w3.org/2000/svg">
<g stroke-width="0.5" fill="none">
<path id="button_c" d="M27 37c0 1.659-1.342 3-3 3s-3-1.341-3-3 1.342-3 3-3 3 1.349 3 3" stroke="#fff"/>
<path id="button_b" d="M33.398 9.049c0 .83-.667 1.5-1.49 1.5-.824 0-1.49-.67-1.49-1.5 0-.829.666-1.5 1.49-1.5.823 0 1.49.674 1.49 1.5" fill="none" stroke="#fff" />
<path d="M33.1 44 H14.9c-2.15 0-3.9-1.717-3.9-3.75V7.75C11 5.716 12.75 4 14.9 4h18.2C35.249 4 37 5.716 37 7.75v32.5c0 2.033-1.751 3.75-3.9 3.75z" stroke="#fff"/>
<path id="button_l" d="M 19.471 38.464 L 15.409 38.464 C 14.943 38.464 14.565 37.937 14.565 37.288 L 14.565 36.699 C 14.565 36.049 14.943 35.522 15.409 35.522 L 19.471 35.522 C 19.28 35.966 19.179 36.475 19.18 36.993 C 19.18 37.53 19.286 38.034 19.471 38.464 Z" stroke="#fff"/>
<path id="button_r" d="M 28.528 35.522 L 32.59 35.522 C 33.056 35.522 33.434 36.049 33.434 36.699 L 33.434 37.288 C 33.434 37.937 33.056 38.464 32.59 38.464 L 28.528 38.464 C 28.719 38.019 28.82 37.511 28.819 36.993 C 28.82 36.475 28.719 35.966 28.528 35.522 Z" stroke="#fff"/>

<g id="pixels" fill="#fff" stroke="none" transform="translate(14.2 10.2) scale(0.5)" >

    <path d="M8.21 6.157h6.158v-6.158H8.21v6.158z"/>
    <path d="M16.421 6.157h6.158v-6.158h-6.158v6.158z"/>
    <path d="M24.632 6.157h6.158v-6.158h-6.158v6.158z"/>

    <path d="M8.21 14.368h6.158v-6.158h-6.158v6.158z"/>
    <path d="M16.421 14.368h6.158v-6.158h-6.158v6.158z"/>
    <path d="M24.632 14.368h6.158v-6.158h-6.158v6.158z"/>

    <path d="M8.21 22.579h6.158v-6.158h-6.158v6.158z"/>
    <path d="M16.421 22.579h6.158v-6.158h-6.158v6.158z"/>
    <path d="M24.632 22.579h6.158v-6.158h-6.158v6.158z"/>

    <path d="M8.21 30.79h6.157v-6.158h-6.157v6.157z"/>
    <path d="M16.421 30.79h6.157v-6.158h-6.157v6.157z"/>
    <path d="M24.632 30.79h6.157v-6.158h-6.157v6.157z"/>

    <path d="M8.21 39.01h6.157v-6.158h-6.157v6.157z"/>
    <path d="M16.421 39.01h6.157v-6.158h-6.157v6.157z"/>
    <path d="M24.632 39.01h6.157v-6.158h-6.157v6.157z"/>
</g>
</g>
</svg>